<svg version="1.1" viewBox="0 0 652 652" xmlns="http://www.w3.org/2000/svg">
  <g fill="#0f238c">
    <path
      d="m425.6 399 21-98.4 8 98.4h45.3l-21-156.3h-48.5l-22.6 93.7-22.6-93.7h-48.5l-21 156.3h45.3l8.1-98.4 21 98.4h35.5zm95.4-156.2v156.2h100v-32.8h-57.8v-123.4h-42.2zm-451.3 0-48.7 156.2h48.7l6.5-28.1h42.2l6.5 28.1h48.7l-48.7-156.3h-55.2zm27.6 34.4 14.6 64.1h-29.2c0-0.1 14.6-64.1 14.6-64.1zm189.2 9.7c-40.4-34.4-103.5-20.4-104.1 11.1-9.2-58.5 63.4-70.8 104.1-52.3 0.7 9.4 1.4 19.5 0 41.2zm-33.5 18.7c16.7 6.3 46.5 14.4 46.5 47.9 0 20.6-20.4 40-44 47.1-29.2 8.8-58.4 0.1-76.3-7.4v-38c15.1 10.5 28.4 16.1 44.9 16.4 9.9 0.2 25-4.6 25-18 0-11.5-10.9-15-17.2-18.4-36-19.2-25.1-57.7 7.4-60.9-9.4 3.1-11.4 8.1-11.4 12.7 0.1 11.2 14.9 14.7 25.1 18.6z"
    />
  </g>
</svg>
