<svg version="1.1" viewBox="0 0 292 89" xmlns="http://www.w3.org/2000/svg">
  <g fill="#0000a4" fill-rule="evenodd">
    <path
      d="M10.938 82.707v-.186c0-3.387-1.8-5.184-4.37-5.184-2.616 0-4.508 1.89-4.508 5.23v.187c0 3.363 1.892 5.16 4.322 5.16 2.5 0 4.556-1.82 4.556-5.207m-4.673 6.211c-3.107 0-5.49-2.241-5.49-6.117v-.187c0-3.76 2.453-6.282 5.677-6.282 2.406 0 3.785 1.378 4.462 2.896v-7.519H8.952v-1.027h3.2v17.07h1.963v.98h-3.2v-2.826c-.632 1.471-2.337 3.012-4.65 3.012m18.229-7.191c-.14-2.966-1.706-4.344-4.089-4.344-2.36 0-4.041 1.681-4.275 4.344h8.364zm-9.696 1.027v-.187c0-3.69 2.336-6.234 5.607-6.234 2.944 0 5.35 1.914 5.35 5.954v.443h-9.672c.047 3.27 1.612 5.137 4.51 5.137 2.032 0 3.41-.84 3.83-2.544h1.239c-.514 2.335-2.453 3.596-5.07 3.596-3.528 0-5.794-2.5-5.794-6.165zM38.703 88.732h-1.332l-3.527-11.185h-1.402v-1.028h4.649v1.028h-1.939l2.967 9.667 3.341-10.695h1.051l3.224 10.695 2.967-9.667h-2.009v-1.028h4.603v1.028h-1.379l-3.551 11.185h-1.378L41.95 78.504zM54.2 72.876c0-.49.397-.887.911-.887.49 0 .888.397.888.887a.893.893 0 0 1-.888.911.897.897 0 0 1-.91-.91zm-1.402 15.856v-.981h1.8V77.547h-1.87v-1.028h3.107v11.232h1.87v.98h-4.907zm6.402 0v-.98h1.798V77.546H59.13v-1.028h3.107v2.452c.561-1.354 2.126-2.639 4.276-2.639 2.546 0 4.298 1.378 4.298 4.834v6.585h1.846v.98H67.68v-.98h1.892v-6.655c0-2.545-1.215-3.69-3.34-3.69-1.987 0-3.996 1.355-3.996 3.9v6.445h1.893v.98h-4.93zM78.704 88.732h-4.859v-.981h1.799V71.709h-1.893v-1.028h3.131v11.653l5.35-4.881h-1.893v-.934h4.883v.981h-1.659l-5.256 4.74 5.607 5.511h1.682v.981h-2.243l-6.471-6.352v5.371h1.822zM95.685 81.727c-.14-2.966-1.705-4.344-4.088-4.344-2.36 0-4.042 1.681-4.276 4.344h8.364zm-9.696 1.027v-.187c0-3.69 2.337-6.234 5.608-6.234 2.943 0 5.35 1.914 5.35 5.954v.443h-9.673c.047 3.27 1.613 5.137 4.51 5.137 2.032 0 3.41-.84 3.831-2.544h1.238c-.514 2.335-2.453 3.596-5.07 3.596-3.527 0-5.794-2.5-5.794-6.165zM98.091 88.732v-.981h1.799V71.709h-1.892v-1.028h3.13v17.07h1.846v.981zM121.485 77.547l-4.205 11.185h-1.542l-4.345-11.185h-1.425v-1.028h4.649v1.028h-1.869l3.808 10.041 3.738-10.041h-1.916v-1.028h4.532v1.028zM131.452 84.786v-2.149h-2.5c-2.523 0-4.486.607-4.486 2.802 0 1.495.981 2.475 2.967 2.475 2.196 0 4.019-1.307 4.019-3.128m-4.136 4.133c-2.383 0-4.088-1.168-4.088-3.48 0-2.849 2.71-3.712 5.7-3.712h2.524v-1.075c0-2.335-.982-3.269-3.084-3.269-1.823 0-3.084.747-3.364 2.592h-1.239c.28-2.615 2.383-3.643 4.65-3.643 2.546 0 4.275 1.168 4.275 4.32v7.099h1.799v.98h-3.037v-1.937c-.748 1.237-2.103 2.125-4.136 2.125m8.611-.187v-.98h1.8V77.546h-1.87v-1.028h3.108v2.452c.56-1.354 2.126-2.639 4.275-2.639 2.546 0 4.298 1.378 4.298 4.834v6.585h1.846v.98h-4.976v-.98h1.892v-6.655c0-2.545-1.215-3.69-3.34-3.69-1.986 0-3.995 1.355-3.995 3.9v6.445h1.892v.98h-4.93zm31.363-6.002v-.186c0-3.223-1.987-5.16-4.58-5.16-2.64 0-4.649 1.984-4.649 5.16v.186c0 3.13 1.963 5.138 4.626 5.138 2.616 0 4.602-1.985 4.602-5.138m-10.513 0v-.186c0-3.666 2.64-6.212 5.935-6.212 3.27 0 5.863 2.476 5.863 6.189v.186c0 3.69-2.616 6.211-5.91 6.211-3.318 0-5.888-2.592-5.888-6.188m12.929 6.002v-.98h1.799V77.546h-1.87v-1.028h3.108v2.452c.56-1.354 2.126-2.639 4.275-2.639 2.547 0 4.3 1.378 4.3 4.834v6.585h1.844v.98h-4.975v-.98h1.892v-6.655c0-2.545-1.215-3.69-3.34-3.69-1.987 0-3.996 1.355-3.996 3.9v6.445h1.892v.98h-4.93zm16.105-1.868v1.868h-1.05v-3.853h1.004c.303 1.658 1.518 3.059 3.738 3.059 1.962 0 3.013-.98 3.013-2.429 0-1.564-.934-2.101-3.224-2.498-2.99-.56-4.228-1.448-4.228-3.503 0-1.961 1.659-3.175 3.831-3.175 1.683 0 2.85.653 3.318 1.75V76.52h1.051v3.27h-1.028c-.327-1.612-1.542-2.452-3.247-2.452-1.706 0-2.78.77-2.78 2.148 0 1.401.864 1.938 3.34 2.405 2.617.49 4.182 1.168 4.182 3.55 0 1.984-1.518 3.502-4.252 3.502-2.149 0-3.317-1.121-3.667-2.078m24.642-2.079v-2.149h-2.5c-2.522 0-4.485.607-4.485 2.802 0 1.495.982 2.475 2.967 2.475 2.196 0 4.018-1.307 4.018-3.128m-4.135 4.133c-2.382 0-4.088-1.168-4.088-3.48 0-2.849 2.71-3.712 5.7-3.712h2.523v-1.075c0-2.335-.98-3.269-3.083-3.269-1.822 0-3.084.747-3.364 2.592h-1.239c.28-2.615 2.383-3.643 4.65-3.643 2.546 0 4.275 1.168 4.275 4.32v7.099h1.798v.98h-3.037v-1.937c-.747 1.237-2.102 2.125-4.135 2.125M214.838 88.732v-.981h1.798V71.709h-1.892v-1.028h3.131v17.07h1.846v.981zM221.265 88.732v-.981h1.799V71.709h-1.893v-1.028h3.131v17.07h1.846v.981zM236.623 81.727c-.14-2.966-1.706-4.344-4.089-4.344-2.36 0-4.042 1.681-4.275 4.344h8.364zm-9.696 1.027v-.187c0-3.69 2.336-6.234 5.607-6.234 2.944 0 5.35 1.914 5.35 5.954v.443h-9.672c.047 3.27 1.612 5.137 4.51 5.137 2.032 0 3.41-.84 3.83-2.544h1.239c-.514 2.335-2.453 3.596-5.07 3.596-3.528 0-5.794-2.5-5.794-6.165zm12.342 5.978v-.98h1.799V77.546h-1.87v-1.028h3.108v2.405c.537-1.354 1.986-2.592 3.972-2.592 1.822 0 3.2.771 3.738 2.826a4.579 4.579 0 0 1 4.252-2.826c2.36 0 4.041 1.285 4.041 4.764v6.655h1.846v.98h-4.976v-.98h1.892v-6.725c0-2.592-1.051-3.62-3.014-3.62-1.869 0-3.738 1.332-3.738 3.877v6.468h1.893v.98h-5.023v-.98h1.892v-6.725c0-2.592-1.051-3.62-3.037-3.62-1.869 0-3.738 1.332-3.738 3.877v6.468h1.892v.98h-4.929zm30.307-3.946v-2.149h-2.5c-2.523 0-4.485.607-4.485 2.802 0 1.495.981 2.475 2.967 2.475 2.196 0 4.018-1.307 4.018-3.128m-4.135 4.133c-2.383 0-4.089-1.168-4.089-3.48 0-2.849 2.71-3.712 5.701-3.712h2.523v-1.075c0-2.335-.981-3.269-3.084-3.269-1.822 0-3.083.747-3.364 2.592h-1.238c.28-2.615 2.383-3.643 4.65-3.643 2.545 0 4.274 1.168 4.274 4.32v7.099h1.799v.98h-3.037v-1.937c-.748 1.237-2.103 2.125-4.135 2.125m16.726-4.133v-2.149h-2.5c-2.523 0-4.485.607-4.485 2.802 0 1.495.981 2.475 2.967 2.475 2.196 0 4.018-1.307 4.018-3.128m-4.135 4.133c-2.383 0-4.088-1.168-4.088-3.48 0-2.849 2.71-3.712 5.7-3.712h2.523v-1.075c0-2.335-.981-3.269-3.084-3.269-1.822 0-3.084.747-3.364 2.592h-1.238c.28-2.615 2.383-3.643 4.649-3.643 2.546 0 4.275 1.168 4.275 4.32v7.099h1.799v.98h-3.037v-1.937c-.748 1.237-2.103 2.125-4.135 2.125M286.612 88.732v-.981h1.799V71.709h-1.892v-1.028h3.13v17.07h1.846v.981zM48.735 48.955c1.542.288 3.257.404 4.4.404 4.17 0 6.912-2.25 6.912-5.768 0-3.46-2.685-5.825-6.57-5.825-1.428 0-3.143.173-4.742.692v10.497zM37.098 19.714h11.637v9.632c2.285-.865 4.644-1.27 7.1-1.27 9.14 0 15.767 6.691 15.767 15.861 0 6.921-4.742 15.11-15.538 15.11H37.098V19.715zm54.071 29.991c3.633 0 6.134-2.423 6.134-5.883s-2.501-5.883-6.134-5.883c-3.633 0-6.134 2.422-6.134 5.883 0 3.46 2.501 5.883 6.134 5.883m0-21.628c12.853 0 17.766 8.363 17.766 15.745 0 8.074-5.655 15.745-17.652 15.745-12.853 0-17.88-8.305-17.88-15.745 0-7.844 5.313-15.745 17.766-15.745M111.295 59.048h11.621V19.714h-11.621zM138.135 52.473c0 3.922-3.038 7.094-6.864 7.094s-6.92-3.172-6.92-7.094 3.094-7.036 6.92-7.036 6.864 3.114 6.864 7.036m26.285 5.191c-3.862 1.441-6.213 1.903-9.403 1.903-9.907 0-16.792-6.402-16.792-15.572 0-7.613 4.982-15.918 16.456-15.918 3.135 0 6.493.519 9.516 1.557v10.093c-2.575-1.211-4.926-1.788-7.389-1.788-4.142 0-6.94 2.423-6.94 5.94 0 3.46 2.966 5.826 7.276 5.826 2.183 0 4.086-.52 7.276-1.904v9.863zm19.311-7.959c3.633 0 6.134-2.423 6.134-5.883s-2.501-5.883-6.134-5.883c-3.633 0-6.134 2.422-6.134 5.883 0 3.46 2.501 5.883 6.134 5.883m0-21.628c12.853 0 17.766 8.363 17.766 15.745 0 8.074-5.655 15.745-17.652 15.745-12.853 0-17.88-8.305-17.88-15.745 0-7.844 5.313-15.745 17.766-15.745m20.288.519h11.615v4.037c2.813-3.114 6.126-4.556 9.8-4.556 4.191 0 6.89 1.615 9.129 5.421 3.043-3.518 6.775-5.421 10.794-5.421 6.832 0 9.794 5.421 9.794 11.477v19.494h-11.616V41.573c0-2.192-1.287-3.634-3.24-3.634-1.722 0-3.656 1.096-4.862 3.114v17.995h-11.697V41.803c0-2.25-1.345-3.864-3.412-3.864-1.493 0-3.427 1.096-4.69 3.114v17.995h-11.615V28.596zM268.904.087c-9.721 0-17.63 7.993-17.63 17.819 0 9.82 7.909 17.81 17.63 17.81 9.718 0 17.625-7.99 17.625-17.81 0-9.826-7.907-17.819-17.625-17.819m0 1.128c9.096 0 16.496 7.488 16.496 16.69 0 9.2-7.4 16.683-16.496 16.683-9.099 0-16.5-7.483-16.5-16.682 0-9.203 7.401-16.69 16.5-16.69"
    />
    <path
      d="m265.23 6.36.037.07-.037-.07zm-4.5 13.155c-2.282 0-4.745-1.573-4.745-4.113 0-4.834 6.142-9.275 8.258-10.261.33-.155.849.474 1.046.87.162.322.097.442.015.487-3.854 2.062-8.002 5.933-8.002 9.558 0 1.571.826 2.183 2.947 2.183 2.494 0 8.156-3.433 8.156-5.907 0-.927-.688-1.397-2.043-1.397-3.36 0-5.17 2.189-5.7 4.063-.039.14-.193.2-.4.158-.268-.055-.538-.262-.508-.5.216-1.663 1.981-5.308 5.822-5.308 1.722 0 3.825 1.545 3.825 3.348 0 3.512-4.884 6.819-8.67 6.819zm5.512 11.723c-1.897 0-5.108-.857-5.108-4.068 0-2.48 2.078-5.392 6.01-8.424l.097-.075c.262-.204.917.209 1.213.576.267.331.144.495.078.55-1.87 1.565-6.252 5.23-6.252 8.202 0 1.152.922 1.867 2.408 1.867 1.949 0 4.374-.562 6.83-1.583.316-.129.686.291.85.632.148.309.137.547-.03.639-2.183 1.196-3.949 1.684-6.096 1.684m8.288-11.548c-4.147 0-4.195-3.056-4.195-3.186 0-.682.413-1.18.66-1.415.174-.168.534-.08.68-.034.29.09.6.273.64.475.018.084-.013.164-.086.226-.584.495-.863.853-.863 1.544 0 .593.618 1.222 1.763 1.222 4.51 0 7.385-3.874 7.385-5.9 0-1.847-1.358-2.235-2.497-2.235-3.954 0-6.855 3.78-6.976 3.94a.259.259 0 0 1-.25.101c-.309-.039-.737-.515-.899-.9-.09-.211-.093-.381-.01-.49.318-.417 1.246-1.448 2.484-2.363 1.605-1.186 3.163-1.788 4.63-1.788 3.151 0 4.587 2.301 4.587 4.439 0 3.39-3.296 6.364-7.053 6.364"
    />
  </g>
</svg>
