<svg
  version="1.1"
  viewBox="0 0 632.18 282.59"
  xmlns="http://www.w3.org/2000/svg">
  <path
    d="m204.07 175.95v106.64"
    fill="none"
    stroke="#f58220"
    stroke-miterlimit="10"
    stroke-width="4"
  />
  <path
    d="m252.06 0s47.99 105.3 0 165.29c0 0 150.63-61.32 163.96-26.66 0 0-19.99-95.97-163.96-138.63z"
    fill="#f58220"
  />
  <path
    fill="#002e5e"
    d="M.55 255.52c-.36-.36-.55-.81-.55-1.33v-50.84c0-.57.17-1.04.51-1.41.34-.36.79-.55 1.37-.55h22.65c6.09 0 10.65 1.34 13.67 4.02 3.02 2.68 4.53 6.34 4.53 10.97 0 2.71-.66 5.01-1.99 6.91-1.33 1.9-2.88 3.27-4.65 4.1 2.19.99 4.03 2.6 5.54 4.84 1.51 2.24 2.27 4.79 2.27 7.65 0 4.84-1.64 8.75-4.92 11.71-3.28 2.97-7.86 4.45-13.74 4.45H1.87c-.52 0-.96-.18-1.33-.55zm22.57-31.71c2.66 0 4.7-.65 6.13-1.95s2.15-3.05 2.15-5.23-.7-3.88-2.11-5.08c-1.41-1.2-3.46-1.8-6.17-1.8h-12.1v14.06h12.1zm.78 23.9c2.71 0 4.82-.74 6.33-2.23s2.27-3.37 2.27-5.66-.77-4.18-2.3-5.66c-1.54-1.48-3.63-2.23-6.29-2.23H11.02v15.78h12.89zM57.32 255.52c-.36-.36-.55-.81-.55-1.33v-50.84c0-.57.17-1.04.51-1.41.34-.36.79-.55 1.37-.55h20.93c6.3 0 11.25 1.48 14.84 4.45s5.39 7.29 5.39 12.96-1.8 9.88-5.39 12.77c-3.59 2.89-8.54 4.33-14.84 4.33H68.1v18.27c0 .57-.18 1.03-.55 1.37-.37.34-.83.51-1.41.51h-7.5c-.52 0-.96-.18-1.33-.55zm21.87-28.35c3.02 0 5.32-.71 6.91-2.15 1.59-1.43 2.38-3.53 2.38-6.29s-.77-4.82-2.3-6.33c-1.54-1.51-3.86-2.26-6.99-2.26H67.94v17.02h11.25zM111.99 255.52c-.36-.36-.55-.81-.55-1.33v-50.84c0-.57.17-1.04.51-1.41.34-.36.79-.55 1.37-.55h6.33c.99 0 1.77.5 2.34 1.48l15.07 27.96 15.07-27.96c.57-.99 1.35-1.48 2.34-1.48h6.25c.57 0 1.04.18 1.41.55.36.36.55.83.55 1.41v50.84c0 .57-.18 1.03-.55 1.37-.37.34-.83.51-1.41.51H154c-.52 0-.96-.18-1.33-.55-.36-.36-.55-.81-.55-1.33v-33.58l-10.86 20.62c-.57 1.15-1.43 1.72-2.58 1.72h-3.28c-1.09 0-1.98-.57-2.66-1.72l-10.86-20.62v33.58c0 .52-.17.96-.51 1.33-.34.36-.79.55-1.37.55h-6.72c-.52 0-.96-.18-1.33-.55zM245.18 251.34c-3.93-3.67-6.03-8.89-6.29-15.66-.05-1.41-.08-3.7-.08-6.87s.02-5.57.08-7.03c.26-6.66 2.37-11.86 6.33-15.58 3.96-3.72 9.5-5.58 16.63-5.58 4.63 0 8.67.8 12.1 2.38 3.44 1.59 6.1 3.76 8 6.52 1.9 2.76 2.9 5.86 3.01 9.29v.16c0 .42-.17.77-.51 1.05s-.72.43-1.13.43h-7.57c-.62 0-1.09-.14-1.41-.43s-.57-.79-.78-1.52c-.78-3.23-2.13-5.51-4.06-6.83-1.93-1.33-4.48-1.99-7.65-1.99-7.45 0-11.32 4.17-11.64 12.5-.05 1.41-.08 3.57-.08 6.48s.02 5.13.08 6.64c.31 8.33 4.19 12.5 11.64 12.5 3.12 0 5.66-.66 7.61-1.99s3.32-3.6 4.1-6.83c.21-.73.47-1.24.78-1.52.31-.29.78-.43 1.41-.43h7.57c.47 0 .87.16 1.21.47s.48.7.43 1.17c-.11 3.44-1.11 6.53-3.01 9.29-1.9 2.76-4.57 4.93-8 6.52-3.44 1.59-7.47 2.38-12.1 2.38-7.19 0-12.74-1.84-16.67-5.51zM301.84 251.46c-3.96-3.59-6.04-8.93-6.25-16.01-.05-1.51-.08-3.72-.08-6.64s.02-5.21.08-6.72c.21-6.92 2.34-12.23 6.4-15.93 4.06-3.7 9.55-5.55 16.48-5.55s12.35 1.85 16.44 5.55c4.09 3.7 6.23 9.01 6.44 15.93.1 3.02.16 5.26.16 6.72s-.05 3.62-.16 6.64c-.21 7.08-2.3 12.42-6.29 16.01-3.98 3.59-9.52 5.39-16.6 5.39s-12.68-1.8-16.63-5.39zm24.91-6.79c2.03-2.08 3.12-5.28 3.28-9.61.1-3.12.16-5.23.16-6.33 0-1.2-.05-3.31-.16-6.33-.16-4.27-1.28-7.46-3.36-9.57-2.08-2.11-4.82-3.16-8.2-3.16s-6.2 1.05-8.28 3.16c-2.08 2.11-3.18 5.3-3.28 9.57-.05 1.51-.08 3.62-.08 6.33s.02 4.76.08 6.33c.1 4.27 1.18 7.46 3.24 9.57 2.06 2.11 4.83 3.16 8.32 3.16s6.25-1.04 8.28-3.12zM355.33 255.52c-.36-.36-.55-.81-.55-1.33v-50.84c0-.57.17-1.04.51-1.41.34-.36.79-.55 1.37-.55h6.33c.99 0 1.77.5 2.34 1.48l15.07 27.96 15.07-27.96c.57-.99 1.35-1.48 2.34-1.48h6.25c.57 0 1.04.18 1.41.55.36.36.55.83.55 1.41v50.84c0 .57-.18 1.03-.55 1.37-.37.34-.83.51-1.41.51h-6.72c-.52 0-.96-.18-1.33-.55-.36-.36-.55-.81-.55-1.33v-33.58l-10.86 20.62c-.57 1.15-1.43 1.72-2.58 1.72h-3.28c-1.09 0-1.98-.57-2.66-1.72l-10.86-20.62v33.58c0 .52-.17.96-.51 1.33-.34.36-.79.55-1.37.55h-6.72c-.52 0-.96-.18-1.33-.55zM421.87 255.52c-.36-.36-.55-.81-.55-1.33v-50.84c0-.57.17-1.04.51-1.41.34-.36.79-.55 1.37-.55h20.93c6.3 0 11.25 1.48 14.84 4.45s5.39 7.29 5.39 12.96-1.8 9.88-5.39 12.77c-3.59 2.89-8.54 4.33-14.84 4.33h-11.48v18.27c0 .57-.18 1.03-.55 1.37-.37.34-.83.51-1.41.51h-7.5c-.52 0-.96-.18-1.33-.55zm21.87-28.35c3.02 0 5.32-.71 6.91-2.15 1.59-1.43 2.38-3.53 2.38-6.29s-.77-4.82-2.3-6.33c-1.54-1.51-3.86-2.26-6.99-2.26h-11.25v17.02h11.25zM467.94 255.6c-.31-.31-.47-.7-.47-1.17l.16-.7 18.74-50.37c.52-1.3 1.46-1.95 2.81-1.95h8.59c1.35 0 2.29.65 2.81 1.95l18.74 50.37.16.7c0 .47-.17.86-.51 1.17-.34.31-.72.47-1.13.47h-6.95c-1.09 0-1.85-.49-2.27-1.48l-3.59-9.45h-23.12l-3.59 9.45c-.42.99-1.17 1.48-2.27 1.48h-6.95c-.47 0-.86-.16-1.17-.47zm16.71-19.52h17.65l-8.82-24.05-8.82 24.05zM530.34 255.52c-.36-.36-.55-.81-.55-1.33v-50.84c0-.57.17-1.04.51-1.41.34-.36.79-.55 1.37-.55h6.09c.99 0 1.74.44 2.27 1.33l22.34 34.67v-34.05c0-.57.17-1.04.51-1.41.34-.36.79-.55 1.37-.55h6.72c.57 0 1.04.18 1.41.55.36.36.55.83.55 1.41v50.76c0 .57-.18 1.04-.55 1.41-.36.36-.81.55-1.33.55h-6.17c-1.04 0-1.82-.44-2.34-1.33l-22.26-33.89v33.35c0 .52-.17.96-.51 1.33-.34.36-.79.55-1.37.55h-6.72c-.52 0-.96-.18-1.33-.55zM603.05 255.52c-.36-.36-.55-.81-.55-1.33v-17.57l-18.51-32.72c-.16-.47-.23-.75-.23-.86 0-.47.17-.86.51-1.17.34-.31.71-.47 1.13-.47h7.03c.99 0 1.8.5 2.42 1.48l13.12 22.65 13.2-22.65c.21-.36.51-.7.9-1.02s.87-.47 1.44-.47h7.03c.47 0 .86.16 1.17.47s.47.7.47 1.17c0 .31-.08.6-.23.86l-18.43 32.72v17.57c0 .57-.18 1.03-.55 1.37-.37.34-.83.51-1.41.51h-7.19c-.52 0-.96-.18-1.33-.55z"
  />
</svg>
