<svg
  version="1.1"
  viewBox="0 0 440.06 279.53"
  xmlns="http://www.w3.org/2000/svg">
  <g fill="#e31937">
    <path
      d="M143.91 97c-27.4 0-44.2 21.4-44.2 43 0 26 21.2 43 44.4 43 15.4 0 30-6.8 42.4-17.8v32.2c-13 7.8-30.8 12.6-44.6 12.6-39.6 0-72.8-32.2-72.8-70 0-40 33.4-70 73-70 15.2 0 33 4.6 44.6 10.4V112c-14.6-9.6-29.4-15-42.8-15zM270.69 210c-39.8 0-73.4-31-73.4-70 0-39.4 33.4-70 75.2-70 15.2 0 34 4 45.6 9.4v31.4c-13.2-7.6-30.2-13.8-45-13.8-27.4 0-45.2 21.4-45.2 43 0 25.4 21 43.8 45.6 43.8 5.2 0 10.2-.4 16.6-2.8v-25.2h-22.4v-26.6h51.2V200c-14.6 6.6-31 10-48.2 10zM341.26 207.2V72.8h28.8v134.4h-28.8z"
    />
  </g>
</svg>
