<svg
  enable-background="new 0 0 815 360"
  version="1.1"
  viewBox="0 0 815 360"
  xmlns="http://www.w3.org/2000/svg">
  <rect fill="#2382DF" width="815" height="360" />
  <path fill="#fff" d="m311 129.5h13v49.7h25.9v11.5h-39v-61.2z" />
  <path
    fill="#fff"
    d="M364.8,129.5h43.4v11.2h-30.3V154h29.7v11.2h-29.7v14.2h30.3v11.3h-43.4V129.5z"
  />
  <path
    fill="#fff"
    d="m420.3 129.5h14.9l17 47.1 16.9-47.1h14.9l-23.6 61.2h-16.4l-23.7-61.2z"
  />
  <path
    fill="#fff"
    d="m530.7 180.2h-27.4l-3.9 10.6h-14.3l23.7-61.2h16.4l23.6 61.2h-14.2l-3.9-10.6zm-23.9-11.3h20.3l-10.1-28.1-10.2 28.1z"
  />
  <path
    fill="#fff"
    d="m583.8 168.8h-9.6v21.9h-13.1v-61.2h28.7c12.8 0 20.6 8.4 20.6 19.7 0 10.8-6.8 16.6-13.4 18.2l13.8 23.3h-15l-12-21.9zm4.2-28.1h-13.7v16.9h13.7c5.2 0 9.2-3.3 9.2-8.4 0-5.2-4-8.5-9.2-8.5z"
  />
  <path
    fill="#fff"
    d="m640.9 149.6v41.1h-13.1v-61.2h13.4l28.4 39.7v-39.7h13.1v61.2h-12.6l-29.2-41.1z"
  />
  <path
    fill="#fff"
    d="M700.4,129.5h43.4v11.2h-30.3V154h29.7v11.2h-29.7v14.2h30.3v11.3h-43.4V129.5z"
  />
  <path
    fill="#fff"
    d="m314 228.5c2 2 5 3.7 8.8 3.7 3.2 0 4.8-1.5 4.8-3.1 0-2.1-2.4-2.8-5.6-3.5-4.5-1-10.3-2.3-10.3-8.5 0-4.6 4-8.3 10.5-8.3 4.4 0 8.1 1.3 10.8 3.9l-3.3 4.3c-2.2-2.1-5.2-3-7.9-3s-4.1 1.2-4.1 2.8c0 1.9 2.3 2.4 5.5 3.2 4.6 1 10.4 2.4 10.4 8.5 0 5.1-3.6 8.9-11.1 8.9-5.3 0-9.1-1.8-11.7-4.4l3.2-4.5z"
  />
  <path
    fill="#fff"
    d="m349.5 216.4c6 0 10.1 4.5 10.1 11v1.2h-14.9c0.3 2.5 2.4 4.6 5.8 4.6 1.9 0 4.1-0.7 5.4-2l2.3 3.4c-2 1.8-5.1 2.8-8.3 2.8-6.1 0-10.7-4.1-10.7-10.5-0.1-5.8 4.2-10.5 10.3-10.5zm-5 8.6h9.9c-0.1-1.9-1.5-4.4-4.9-4.4-3.3 0-4.7 2.4-5 4.4z"
  />
  <path
    fill="#fff"
    d="m365.9 216.9h5.3v2.7c1.4-1.8 3.9-3.2 6.4-3.2v5.1c-0.4-0.1-0.9-0.2-1.5-0.2-1.7 0-4.1 1-4.9 2.3v13.2h-5.3v-19.9z"
  />
  <path
    fill="#fff"
    d="m382.5 216.9h5.6l5.2 13.9 5.2-13.9h5.7l-8.1 20h-5.7l-7.9-20z"
  />
  <path
    fill="#fff"
    d="m418.4 216.4c6 0 10.1 4.5 10.1 11v1.2h-14.9c0.3 2.5 2.4 4.6 5.8 4.6 1.9 0 4.1-0.7 5.4-2l2.3 3.4c-2 1.8-5.1 2.8-8.3 2.8-6.1 0-10.7-4.1-10.7-10.5-0.1-5.8 4.2-10.5 10.3-10.5zm-5 8.6h9.9c-0.1-1.9-1.5-4.4-4.9-4.4-3.3 0-4.7 2.4-5 4.4z"
  />
  <path
    fill="#fff"
    d="m434.8 216.9h5.3v2.7c1.4-1.8 3.9-3.2 6.4-3.2v5.1c-0.4-0.1-0.9-0.2-1.5-0.2-1.7 0-4.1 1-4.9 2.3v13.2h-5.3v-19.9z"
  />
  <path fill="#fff" d="m452.7 209.3h5.3v27.7h-5.3v-27.7z" />
  <path
    fill="#fff"
    d="m475.3 216.4c6 0 10.1 4.5 10.1 11v1.2h-14.9c0.3 2.5 2.4 4.6 5.8 4.6 1.9 0 4.1-0.7 5.4-2l2.3 3.4c-2 1.8-5.1 2.8-8.3 2.8-6.1 0-10.7-4.1-10.7-10.5-0.1-5.8 4.2-10.5 10.3-10.5zm-5 8.6h9.9c-0.1-1.9-1.5-4.4-4.9-4.4-3.3 0-4.7 2.4-5 4.4z"
  />
  <path
    fill="#fff"
    d="m492.6 230.6c1.5 1.4 4.4 2.7 6.9 2.7 2.3 0 3.4-0.8 3.4-2 0-1.4-1.7-1.9-4-2.4-3.4-0.7-7.9-1.5-7.9-6.3 0-3.4 2.9-6.3 8.2-6.3 3.4 0 6.1 1.2 8.1 2.7l-2.1 3.6c-1.2-1.3-3.5-2.3-5.9-2.3-1.9 0-3.2 0.7-3.2 1.9s1.6 1.7 3.8 2.2c3.4 0.7 8.1 1.6 8.1 6.6 0 3.6-3.1 6.4-8.7 6.4-3.5 0-6.9-1.2-9-3.1l2.3-3.7z"
  />
  <path
    fill="#fff"
    d="m514.6 230.6c1.5 1.4 4.4 2.7 6.9 2.7 2.3 0 3.4-0.8 3.4-2 0-1.4-1.7-1.9-4-2.4-3.4-0.7-7.9-1.5-7.9-6.3 0-3.4 2.9-6.3 8.2-6.3 3.4 0 6.1 1.2 8.1 2.7l-2.1 3.6c-1.2-1.3-3.5-2.3-5.9-2.3-1.9 0-3.2 0.7-3.2 1.9s1.6 1.7 3.8 2.2c3.4 0.7 8.1 1.6 8.1 6.6 0 3.6-3.1 6.4-8.7 6.4-3.5 0-6.9-1.2-9-3.1l2.3-3.7z"
  />
  <path
    fill="#fff"
    d="m554.2 228.5c2 2 5 3.7 8.8 3.7 3.2 0 4.8-1.5 4.8-3.1 0-2.1-2.4-2.8-5.6-3.5-4.5-1-10.3-2.3-10.3-8.5 0-4.6 4-8.3 10.5-8.3 4.4 0 8.1 1.3 10.8 3.9l-3.3 4.3c-2.2-2.1-5.2-3-7.9-3s-4.1 1.2-4.1 2.8c0 1.9 2.3 2.4 5.5 3.2 4.6 1 10.4 2.4 10.4 8.5 0 5.1-3.6 8.9-11.1 8.9-5.3 0-9.1-1.8-11.7-4.4l3.2-4.5z"
  />
  <path
    fill="#fff"
    d="m578.6 226.9c0-5.7 4-10.5 10.6-10.5s10.6 4.8 10.6 10.5-4 10.5-10.6 10.5-10.6-4.8-10.6-10.5zm15.7 0c0-3.1-1.9-5.8-5.1-5.8s-5.1 2.7-5.1 5.8c0 3.2 1.8 5.8 5.1 5.8s5.1-2.7 5.1-5.8z"
  />
  <path fill="#fff" d="m605.5 209.3h5.3v27.7h-5.3v-27.7z" />
  <path
    fill="#fff"
    d="m632.1 234.4c-1.4 1.5-3.8 3-7.1 3-4.4 0-6.5-2.4-6.5-6.3v-14.2h5.3v12.1c0 2.8 1.5 3.7 3.7 3.7 2 0 3.7-1.1 4.6-2.3v-13.6h5.3v20h-5.3v-2.4z"
  />
  <path
    fill="#fff"
    d="m647 231.9v-10.5h-3.3v-4.6h3.3v-5.5h5.3v5.5h4.1v4.6h-4.1v9c0 1.2 0.7 2.2 1.8 2.2 0.8 0 1.5-0.3 1.8-0.6l1.1 4c-0.8 0.7-2.2 1.3-4.4 1.3-3.6 0.1-5.6-1.8-5.6-5.4z"
  />
  <path
    fill="#fff"
    d="m663.2 211.2c0-1.7 1.5-3.2 3.2-3.2s3.2 1.4 3.2 3.2c0 1.7-1.4 3.2-3.2 3.2-1.8-0.1-3.2-1.5-3.2-3.2zm0.5 5.7h5.3v20h-5.3v-20z"
  />
  <path
    fill="#fff"
    d="m675.5 226.9c0-5.7 4-10.5 10.6-10.5s10.6 4.8 10.6 10.5-4 10.5-10.6 10.5-10.6-4.8-10.6-10.5zm15.8 0c0-3.1-1.9-5.8-5.1-5.8-3.3 0-5.1 2.7-5.1 5.8 0 3.2 1.8 5.8 5.1 5.8 3.2 0 5.1-2.7 5.1-5.8z"
  />
  <path
    fill="#fff"
    d="m715.6 224.8c0-2.8-1.5-3.7-3.7-3.7-2.1 0-3.7 1.2-4.6 2.4v13.5h-5.3v-20h5.3v2.6c1.3-1.5 3.7-3.1 7-3.1 4.4 0 6.5 2.5 6.5 6.4v14.1h-5.3v-12.2z"
  />
  <path
    fill="#fff"
    d="m728.4 230.6c1.5 1.4 4.4 2.7 6.9 2.7 2.3 0 3.4-0.8 3.4-2 0-1.4-1.7-1.9-4-2.4-3.4-0.7-7.9-1.5-7.9-6.3 0-3.4 2.9-6.3 8.2-6.3 3.4 0 6.1 1.2 8.1 2.7l-2.1 3.6c-1.2-1.3-3.5-2.3-5.9-2.3-1.9 0-3.2 0.7-3.2 1.9s1.6 1.7 3.8 2.2c3.4 0.7 8.1 1.6 8.1 6.6 0 3.6-3.1 6.4-8.7 6.4-3.5 0-6.9-1.2-9-3.1l2.3-3.7z"
  />
  <path
    fill="#fff"
    d="m254.7 216v-72.5c5.4-1.2 9.4-6 9.4-11.7 0-6.6-5.4-12-12-12-3.5 0-6.7 1.5-8.9 4l-63.6-36.4c0.4-1.1 0.6-2.3 0.6-3.6 0-6.6-5.4-12-12-12s-12 5.4-12 12c0 1.3 0.2 2.5 0.6 3.6l-63.8 36.3c-2.2-2.4-5.4-4-8.9-4-6.6 0-12 5.4-12 12 0 5.8 4.1 10.6 9.5 11.7l0.1 72.5c-5.5 1.1-9.6 6-9.6 11.8 0 6.6 5.4 12 12 12 3.6 0 6.8-1.6 9-4.1l63.5 36.5c-0.4 1.1-0.6 2.4-0.6 3.6 0 6.6 5.4 12 12 12s12-5.4 12-12c0-1.3-0.2-2.5-0.6-3.6l63.6-36.4c2.2 2.4 5.4 4 8.9 4 6.6 0 12-5.4 12-12 0.2-5.8-3.8-10.6-9.2-11.7zm-54.2 9.1 5.7-9.8c1.2 0.4 2.5 0.6 3.9 0.6 3.6 0 6.9-1.6 9.1-4.2l21.5 12.3c-0.1 0.3-0.2 0.7-0.3 1.1h-39.9zm-104.7 0c-0.1-0.4-0.2-0.7-0.3-1.1l21.6-12.4c2.2 2.4 5.4 4 8.9 4 1.3 0 2.5-0.2 3.7-0.6l5.9 10h-39.8zm39.9-90.8-10.5 18-29.6-16.9c0.1-0.3 0.2-0.7 0.3-1.1h39.8zm104.7 0c0.1 0.4 0.2 0.7 0.3 1.1l-29.7 16.8-10.5-18h39.9zm-148.2 84.6 19.9-34.1 5.9 10.1c-2.4 2.2-3.9 5.3-3.9 8.8 0 1.3 0.2 2.5 0.6 3.6l-21.7 12.4c-0.2-0.3-0.5-0.6-0.8-0.8zm33.9-27.2c-1.3 0-2.5 0.2-3.7 0.6l-7.3-12.6 12-20.5 19.1 10.9c-1.3 2.9-2 6.2-2 9.6s0.7 6.7 2 9.6l-11.1 6.4c-2.3-2.5-5.5-4-9-4zm-33.1-52 29.6 16.9-10.5 18-19.9-34.1c0.3-0.2 0.6-0.5 0.8-0.8zm97.1 30.4 19.1-10.9 12 20.5-7.5 12.8c-1.1-0.3-2.3-0.5-3.6-0.5-3.4 0-6.5 1.5-8.7 3.8l-11.3-6.5c1.3-2.9 2-6.2 2-9.6s-0.8-6.7-2-9.6zm53.9-29.6-19.9 34.1-10.5-18 29.6-16.9c0.2 0.3 0.5 0.6 0.8 0.8zm-25.9 54.6 6-10.3 19.9 34.1-0.8 0.8-21.6-12.3c0.3-1.1 0.5-2.2 0.5-3.3 0-3.7-1.5-6.8-4-9zm30.3 21.2-21.3-36.6 21.3-36.6 1.2 0.3v72.6l-1.2 0.3zm-41.8-61.5-19.1 10.9c-3.9-5.4-9.9-9.1-16.9-9.8v-12.4c4.6-1 8.2-4.6 9.2-9.2h14.8l12 20.5zm-26.8-25.7c-1-4.6-4.6-8.2-9.2-9.2v-24.5l1.2-0.3 19.9 34h-11.9zm-14.3-33.7v24.6c-4.6 1-8.2 4.6-9.2 9.2h-11.8l19.9-34c0.4 0 0.8 0.1 1.1 0.2zm-9.1 38.9c1 4.6 4.6 8.2 9.2 9.2v12.4c-6.9 0.7-13 4.4-16.9 9.8l-19.1-10.9 12-20.5h14.8zm-68.6 8.8 21.3 36.6-21.3 36.6c-0.3-0.1-0.7-0.2-1-0.3l-0.1-72.6c0.4-0.1 0.7-0.2 1.1-0.3zm46.4 69.4c2.4-2.2 3.9-5.3 3.9-8.8 0-1.3-0.2-2.5-0.6-3.6l11.1-6.4c3.9 5.4 9.9 9.1 16.9 9.8v21.6h-24l-7.3-12.6zm31.3 17.8v33.7l-1.2 0.3-19.9-34h21.1zm5.2 33.7v-33.7h21l-19.9 34c-0.4-0.1-0.8-0.2-1.1-0.3zm0-38.9v-21.6c6.9-0.7 13-4.4 16.9-9.8l11.2 6.4c-0.4 1.2-0.6 2.5-0.6 3.9 0 3.4 1.5 6.5 3.8 8.7l-7.2 12.4h-24.1zm70-97c-0.1 0.3-0.2 0.7-0.3 1.1h-42.8l-21.4-36.6 0.8-0.8 63.7 36.3zm-81.5-36.4c0.3 0.3 0.5 0.6 0.8 0.8l-21.4 36.6h-42.8c-0.1-0.4-0.2-0.7-0.3-1.1l63.7-36.3zm-63.6 139.4c0.1-0.3 0.2-0.6 0.2-0.9h42.8l21.4 36.6-0.8 0.8-63.6-36.5zm81.4 36.6c-0.3-0.3-0.5-0.6-0.8-0.8l21.4-36.6h42.8c0.1 0.4 0.2 0.7 0.3 1.1l-63.7 36.3z"
  />
</svg>
