<svg
  version="1.1"
  viewBox="0 0 163 48"
  xmlns="http://www.w3.org/2000/svg"
  xmlns:xlink="http://www.w3.org/1999/xlink">
  <defs>
    <path id="a" d="M.161.212h14.474v8.36H.161z" />
    <path id="c" d="M0 .058h8.359v14.474H0z" />
    <path id="e" d="M.162.142h14.474v8.359H.162z" />
  </defs>
  <g fill="none" fill-rule="evenodd">
    <path
      d="M57.318 35.736v-23.37h3.391v19.999H71.73v3.371zm18.688 0h3.39v-23.37h-3.39zm26.464 0L89.717 18.381v17.355h-3.391v-23.37h3.096l12.754 17.432V12.367h3.39v23.369zm13.416-5.555v5.555h-3.39v-23.37h3.39v12.835l11.464-12.834h4.018v.23l-8.589 9.692 9.215 13.179v.268h-3.76l-7.666-10.88zm20.273 5.555h3.391v-23.37h-3.391zm7.113-23.369v3.294h7.851v20.075h3.391V15.66h7.851v-3.294z"
      fill="#302840"
    />
    <g transform="translate(16.408 39.287)">
      <mask id="b" fill="#fff">
        <use xlink:href="#a" />
      </mask>
      <path
        d="M.161 7.45a23.898 23.898 0 0014.474 0L7.398.211.161 7.45z"
        fill="#26B9DD"
        mask="url(#b)"
      />
    </g>
    <path
      d="M7.574 41.472a23.7 23.7 0 007.251 4.632l8.982-8.982-5.942-5.94-10.29 10.29"
      fill="#23ACCE"
    />
    <path
      d="m17.865 31.181 14.923 14.923a23.712 23.712 0 0 0 7.251-4.632l-16.233-16.232-5.94 5.941"
      fill="#26B9DD"
    />
    <g transform="translate(0 16.756)">
      <mask id="d" fill="#fff">
        <use xlink:href="#c" />
      </mask>
      <path
        d="M1.122.058a23.9 23.9 0 000 14.474l7.237-7.237L1.122.058z"
        fill="#4191C2"
        mask="url(#d)"
      />
    </g>
    <path
      d="M6.386 7.819a23.705 23.705 0 00-4.632 7.25l8.982 8.983 5.94-5.942L6.387 7.819"
      fill="#3C87B5"
    />
    <path
      d="m16.677 18.11-14.923 14.923a23.712 23.712 0 0 0 4.632 7.25l16.232-16.232-5.941-5.94"
      fill="#4191C2"
    />
    <g transform="translate(16.408 .103)">
      <mask id="f" fill="#fff">
        <use xlink:href="#e" />
      </mask>
      <path
        d="M14.636 1.264a23.898 23.898 0 00-14.474 0l7.237 7.237 7.237-7.237z"
        fill="#77C19E"
        mask="url(#f)"
      />
    </g>
    <path
      d="M40.04 6.63A23.7 23.7 0 0032.787 2l-8.982 8.981 5.942 5.942L40.04 6.63"
      fill="#6EB292"
    />
    <path
      d="m29.748 16.922-14.923-14.923a23.712 23.712 0 0 0-7.25 4.632l16.232 16.232 5.941-5.941"
      fill="#77C19E"
    />
    <path
      d="M46.491 31.288a23.898 23.898 0 000-14.473l-7.237 7.236 7.237 7.237z"
      fill="#55BBB4"
    />
    <path
      d="M41.227 40.284a23.7 23.7 0 004.632-7.251l-8.982-8.982-5.94 5.942 10.29 10.29"
      fill="#4FADA8"
    />
    <path
      d="M30.936 29.993l5.941-5.942 8.982-8.981a23.708 23.708 0 00-4.632-7.25L24.995 24.05l5.941 5.942"
      fill="#55BBB4"
    />
    <path
      d="M29.748 16.922l-5.484-5.485-.457-.456 1.188-1.189 5.941 5.942z"
      fill="#5D957A"
    />
    <path d="M24.264 11.437l-.457-.457z" fill="#63A183" />
    <path
      d="M21.065 34.38l-3.2-3.199 3.2 3.2m-4.388-2.012l.297-.297-.297.297"
      fill="#D3D1D1"
    />
    <path
      d="M22.619 38.31l-5.942-5.94.297-.298.891-.89 3.2 3.198 2.742 2.742z"
      fill="#2291A9"
    />
    <path
      d="M32.125 31.181l-.366-.366.366.366m-1.188-1.188l2.97-2.97-2.97 2.97"
      fill="#D3D1D1"
    />
    <path
      d="m32.125 31.181-1.188-1.188 2.97-2.971 2.97-2.97 1.189 1.187z"
      fill="#45928B"
    />
    <path d="m30.936 29.993 5.942-5.942-2.97 2.97z" fill="#499D95" />
    <path d="m16.677 18.11-1.188-1.188z" fill="#D3D1D1" />
    <path
      d="m10.736 24.052-1.188-1.189 5.94-5.941 1.189 1.188-5.941 5.941"
      fill="#387296"
    />
    <path d="m10.736 24.052 1.828-1.829z" fill="#3A7AA0" />
  </g>
</svg>
