<svg
  enable-background="new 0 0 1000 500"
  version="1.1"
  viewBox="0 0 1e3 500"
  xmlns="http://www.w3.org/2000/svg">
  <path
    fill="#14120E"
    d="m716.8 353.5c-1.7 0-1.8 0.7-1.7 2 0 0.6 0.3 1.4-0.2 2-6.5-5.7-12.9-6-18.1-0.9-5.3 5.2-5.8 14.6-1.1 20 2.3 2.9 5.8 4.6 9.5 4.6 4 0 7.1-1.8 9.9-4.7v2.7c-0.1 4.5-1.9 7.2-5.6 8.5-4.3 1.5-9.4 0.5-11.7-2.7-1.3-1.9-2.7-2.1-4.9-1.8 1 3.5 3.6 6.2 7 7.5 9.8 3.9 18.3-1.8 18.5-12.4 0.1-7.7 0-15.3 0.1-22.9 0-1.1 0-1.9-1.7-1.9zm-11.3 24.4c-5.7 0-9.7-4.5-9.6-10.7s4.5-10.9 10-10.8 9.5 4.9 9.3 11.1c-0.1 6.4-4 10.5-9.7 10.4z"
  />
  <path
    fill="#14130E"
    d="m855.1 353.6c-1.4 0-1.7 0.5-1.6 1.8 0.2 0.8 0.1 1.6-0.2 2.3-6.3-5.7-12.9-6-18-0.9-5.3 5.2-5.8 14.6-1.2 20 2 2.5 4.9 4.2 8.1 4.6 4.5 0.5 8.1-1.2 11.3-4.8v2.8c0 4.5-1.8 7.2-5.5 8.5-4.3 1.5-9.4 0.6-11.7-2.6-0.9-1.7-2.9-2.5-4.8-1.8 1.8 6.2 8.4 9.7 15.6 8.3 6-1.2 9.5-5.6 9.7-12.3 0.2-8 0-15.9 0.2-23.8-0.1-1.6-0.3-2.2-1.9-2.1zm-2.5 18.9c-1.7 4.1-6.2 6.4-10.5 5.3-5-1.1-7.9-4.8-7.9-10.9 0-3.8 2.1-7.3 5.4-9.1 4.5-2.5 10.1-0.9 12.6 3.6 0.1 0.1 0.1 0.3 0.2 0.4 1.7 3.3 1.8 7.2 0.2 10.7z"
  />
  <path
    fill="#15130E"
    d="m455.2 427.2c-2.8-2.7-2.8-2.8 0-5.2 1-0.8 1-1.3 0.1-2.1-0.6-0.6-0.9-1.7-2.4-0.6-3.3 2.5-3.3 2.4-6.4-0.6-0.6-0.7-1.3-1.4-2-2.1-1-1-2.5-2-2.7-3.2-0.3-1.4 1.7-2.1 2.6-3.2 1.5-1.8 3.1-3.7 2.6-6.4-0.6-3-3.2-5.2-6.2-5.3-3.8-0.4-7.3 1.2-8.4 4.1-0.5 1-0.5 2.2-0.3 3.2 0.4 1.4 1 2.7 1.9 3.8 2 2.9 2 2.9-0.6 5.4-1.8 1.5-3.3 3.3-4.3 5.4-2.5 5.5 1 11.2 7.1 11.5 4.6 0.2 8.4-1.6 11.7-4.4 1.1-0.9 1.7-1 2.6 0.2 1.9 2.4 4.1 4.3 8.1 2.8-1.1-1.2-2.3-2.2-3.4-3.3zm-15.5-25.4c2.2 0 3.9 1.3 3.9 2.9 0 1.4-3.3 5.7-4.4 5.6-0.9 0-3.5-4.4-3.5-5.6 0.1-1.7 1.8-2.9 4-2.9zm-0.6 26.9c-2.3 0.7-4.7-0.1-6.2-1.9-1.4-1.9-1.2-3.8 0-5.8 0.3-0.4 0.4-0.8 0.7-1.2 1.3-1.6 2.8-3.5 4.6-4 2.1-0.5 2.7 2.3 4.2 3.4 1.7 1.3 3.3 2.7 5.3 4.3-3.3 2.4-5.6 4.4-8.6 5.2z"
  />
  <path
    fill="#15130F"
    d="m300.3 345.2c0-1.3 0.1-2.1-1.7-2.2-2.1 0-1.6 1.1-1.6 2.2v13.2c-0.9-0.9-1.4-1.4-1.8-1.9-2.8-3.1-7.1-4.2-11-2.9-5.9 1.6-8.9 6-9.6 11.7-0.9 6 1.1 11.2 6.3 14.7 5 3.3 10.5 2.4 16.3-2.9v2c0 1-0.6 2.3 1.5 2.3 2 0 1.9-0.9 1.9-2.3-0.3-11.3-0.4-22.6-0.3-33.9zm-9.4 32.4c-3.3 1.6-7.3 0.9-9.8-1.7-3.3-3-4.5-7.8-3-12 1.5-4.8 6.1-8 10.4-7.3 5.2 0.8 8.6 5.3 8.6 12.2-0.2 3.9-2.6 7.3-6.2 8.8z"
  />
  <path
    fill="#14130E"
    d="m583.3 410.2c5.1-6.8 14.3-5.7 16.4 1 1-1.6 2.4-3 3.9-4.1 5.9-3.7 12.9-0.6 13.4 6.3 0.4 5.5 0.1 11 0.2 16.4 0 1.6-1 1-1.8 1.1-1 0.1-1.6-0.1-1.6-1.4 0-5.2 0.1-10.3-0.1-15.5-0.1-4.3-3.5-6.5-7.6-5.2-2.6 0.8-4.7 2.9-5.3 5.6-0.4 1.9-0.6 3.8-0.5 5.7 0 3-0.1 6 0 9.1 0 1.4-0.4 1.7-1.7 1.7s-1.7-0.5-1.7-1.8c0-4.9 0.2-9.9-0.2-14.8-0.3-2.8-1.2-4.9-4.1-5.7s-5.1 0.4-7 2.4c-2 2.2-2.3 5-2.4 7.8-0.1 3.4-0.1 6.8-0.1 10.3 0 1.2-0.2 1.8-1.6 1.8s-1.7-0.4-1.7-1.7c0.1-7.1 0.1-14.3 0-21.5 0-1.4 0.4-1.7 1.7-1.7s1.8 0.5 1.6 1.8c0.2 0.8 0.2 1.6 0.2 2.4z"
  />
  <path
    fill="#14130E"
    d="m248.8 410.1c5.7-7.1 14.6-5.1 16.4 1.1 1-1.3 2.1-2.6 3.3-3.6 2.6-2.1 6.1-2.6 9.2-1.3 3.3 1.3 4.7 4.1 4.9 7.3 0.3 5.4 0.1 10.8 0.2 16.2 0 1.5-0.9 1.1-1.7 1.2-1.2 0.1-1.7-0.3-1.6-1.5 0.1-5.1 0.1-10.2 0-15.3-0.1-3.8-3.2-6.3-6.7-5.6-3.1 0.5-5.5 2.9-6.2 5.9-0.4 1.9-0.6 3.8-0.5 5.7v9.1c0 1.3-0.3 1.8-1.7 1.8s-1.7-0.4-1.7-1.7c0-4.9 0.3-9.9-0.2-14.8-0.4-3.6-1.5-5.1-4.3-5.8-3-0.7-5.2 0.6-7.1 2.8s-2 4.8-2.1 7.4c-0.1 3.4-0.1 6.8-0.1 10.3 0 1.2-0.1 1.8-1.6 1.8s-1.8-0.6-1.8-1.9c0.1-6.9 0-13.8 0-20.7 0-1.1-0.4-2.3 1.6-2.3s1.6 1.1 1.6 2.3c0.1 0.3 0.1 0.7 0.1 1.6z"
  />
  <path
    fill="#14130E"
    d="m469.6 367.9c3.1 0.1 6.2 0 9.3 0h7.4c4.5 0 4.5 0 3.5-4.4-2-8.7-11.3-13.3-18.6-8.8-5.3 3.3-7 8.6-6.6 14.6 0.4 5.8 4.6 10.9 9.7 12.2 5.6 1.4 11.4-1.1 14.2-6.2 0.6-1 0.8-1.5-0.5-2.3-1.6-1.2-1.9-0.1-2.6 0.9-2.1 3.4-6.1 5.1-10 4.4-4-0.9-6.8-4.2-7.5-8.5-0.2-1.6 0.2-2 1.7-1.9zm-1-4.9c1.5-4.1 4.9-6.7 9-6.5 4.4 0.2 7.6 3 8.9 8.1h-16.8c-1.5 0-1.5-0.4-1.1-1.6z"
  />
  <path
    fill="#14130E"
    d="m559.9 367.9c3.1 0.1 6.2 0 9.3 0h7.4c4.3 0 4.4 0 3.3-4.3-1.3-5.3-4.3-9.2-9.9-10.3-4.7-1.2-9.7 0.8-12.3 4.9-3.6 4.8-4.1 11.3-1.2 16.6 1.8 4.3 6.1 7 10.7 7 5.3 0.1 9.1-2.2 11.7-6.7 0.5-0.8 0.7-1.3-0.3-1.9-1.2-0.8-2-1-2.9 0.5-2.1 3.4-6 5.3-9.9 4.6-4-0.9-6.9-4.1-7.7-8.5-0.3-1.5 0.1-2 1.8-1.9zm-1-4.9c1.2-4 4.9-6.7 9.1-6.6 4.5 0.3 7.9 3.3 8.7 8.1h-16.8c-1.6 0.1-1.5-0.4-1-1.5z"
  />
  <path
    fill="#14130E"
    d="m367 367.9c3.1 0.1 6.2 0 9.3 0h7.4c4.5 0 4.5 0 3.5-4.4-1.9-8.7-11.4-13.3-18.5-8.9-5.3 3.3-7.1 8.5-6.7 14.6 0.4 5.8 4.6 10.9 9.7 12.2 5.4 1.4 11.1-0.9 14-5.7 0.5-0.7 1.8-1.5 0.1-2.6-1.5-0.9-2-0.6-2.9 0.6-2.1 3.4-6.1 5.2-10 4.4-4-1-7.1-4.3-7.6-8.5-0.2-1.3 0.1-1.8 1.7-1.7zm-1-4.7c1.2-4.1 5-6.9 9.2-6.8 4.5 0.3 8.1 3.7 8.6 8.1h-16.9c-1.2 0.1-1.3-0.2-0.9-1.3z"
  />
  <path
    fill="#15130F"
    d="m822.5 396.5c-1.2 0-1.6 0.3-1.6 1.6 0.1 3.9 0 7.9 0 11.9-7.8-5.7-13.8-5.8-19-0.6-4.5 4.5-5.1 11.6-1.2 16.8 2.2 3.2 5.8 5.1 9.6 5.3 4.1 0.3 7.5-1.4 10.6-4.4v1.9c0 1.1-0.3 2.1 1.5 2.1s1.9-0.7 1.9-2.1v-30.7c0-1.7-0.6-1.7-1.8-1.8zm-11.1 32c-5.5-0.1-9.9-4.6-9.9-10.1 0.1-5.4 4.4-9.8 9.8-9.9 5.5 0 10 4.4 10 10s-4.4 10-9.9 10z"
  />
  <path
    fill="#15140F"
    d="m313.8 406.1c-1.5 0-1.8 0.4-1.7 1.7 0 0.6 0.3 1.4-0.2 2-6.9-5.5-13.7-5.6-18.8-0.4-4.7 4.7-5 12.2-0.7 17.4 5 5.9 11.5 6.1 19.8 0.5v1.7c-0.1 1.2-0.1 2.1 1.6 2 1.6 0 1.7-0.7 1.7-2 0-7.1-0.1-14.2 0-21.2 0-1.4-0.4-1.7-1.7-1.7zm-11.3 22.4c-5.5-0.2-9.8-4.7-9.8-10.2 0.1-5.4 4.5-9.8 9.9-9.8 5.5 0 10 4.5 9.9 10 0 5.6-4.5 10-10 10z"
  />
  <path
    fill="#15130F"
    d="m404.9 406.1c-1.8-0.1-1.6 0.9-1.6 2v1.9c-6.7-5.4-13.2-5.8-18.2-1.4-4.9 4.1-6.1 11.1-2.7 16.5 2.1 3.6 5.8 5.9 9.9 6.2 4.2 0.4 7.8-1.2 11-4.4v2c-0.1 1.2-0.1 2 1.6 2 1.6 0 1.7-0.8 1.7-2v-21c0.1-1.3-0.2-1.8-1.7-1.8zm-11.3 22.4c-5.4-0.2-9.7-4.6-9.7-10s4.3-9.8 9.7-10c5.5 0 10 4.5 10 10s-4.5 10-10 10z"
  />
  <path
    fill="#15140F"
    d="m648.3 406.1c-1 0-1.9 0-1.7 1.4 0.1 0.9 0.1 1.8 0 2.7-5.9-5.5-13-6.1-18.1-1.7-5.1 4.3-6.2 11.7-2.5 17.2 1.7 2.7 4.5 4.6 7.6 5.4 4.9 1.1 9.2-0.3 13-4.1v1.9c0 1.1-0.3 2.1 1.5 2.1s1.8-0.8 1.8-2.1v-21.3c0.2-1.3-0.4-1.6-1.6-1.5zm-11.3 22.4c-5.5 0-10-4.4-10-10s4.4-10 10-10 10 4.4 10 10-4.5 10-10 10z"
  />
  <path
    fill="#14130E"
    d="m836.3 418.9c3.1 0.1 6.2 0 9.3 0s6.4 0 9.5 0c1.1 0 1.7-0.2 1.6-1.6-0.5-7.1-6.7-12.4-13.8-11.9-6.4 0.5-11.4 5.5-11.9 11.9-0.3 6.1 3 11.5 8 13.2 6.1 2.1 12.3 0.2 15.7-4.7 1.2-1.7 0.9-2.4-1.1-2.9-1.3-0.3-1.3 0.9-1.8 1.5-2.3 3.1-6.1 4.6-9.9 3.9-4.1-0.7-6.5-3.3-7.5-7.3-0.3-1.7 0.2-2.1 1.9-2.1zm-1.1-4.3c1.3-3.8 5-6.2 9-6.1 4.2 0.1 7.3 2.7 8.8 7.6h-17c-1.6 0-1.2-0.6-0.8-1.5z"
  />
  <path
    fill="#14130E"
    d="m688.5 418.9c3.2 0.1 6.4 0 9.5 0s6.5 0 9.8 0c1.2 0 1.5-0.4 1.4-1.5-0.4-6.1-5.1-11.1-11.1-11.9-6.9-0.8-12.3 3-14.1 9.6-1.6 5.8 1.4 12.5 6.5 15 5.9 2.8 12.9 1.1 16.8-4.2 1.2-1.7 0.9-2.4-1-3-1.3-0.4-1.3 0.9-1.8 1.5-2.7 3.1-6 4.6-10.1 3.8s-6.4-3.5-7.4-7.4c-0.3-1.2-0.2-1.9 1.5-1.9zm-0.8-4.3c1.3-3.9 5.1-6.4 9.2-6.1 4.4 0.3 7.5 3 8.5 7.6h-17.1c-1.4 0-0.9-0.7-0.6-1.5z"
  />
  <path
    fill="#15130F"
    d="m783.8 358.2c1.7-1.7 2.9-3.1 4.6-4 5.9-3 12.2 0.1 13.4 6.6 0.6 3.3 0.4 6.6 0.5 10v8.6c0 1.3 0 2-1.7 2s-1.7-0.9-1.7-2v-13.3c0-1.3-0.1-2.7-0.4-4-1-5.2-6.2-7.2-10.5-4-2.3 1.7-3.8 4.4-4 7.3-0.4 4.7-0.3 9.4-0.3 14 0 1.1 0.3 2.1-1.6 2.1s-1.8-0.9-1.8-2.2v-23.6c0-1.2 0-2 1.7-2s1.8 0.7 1.7 2c0.1 0.5 0.1 1.2 0.1 2.5z"
  />
  <path
    fill="#15130F"
    d="m613 358.2c1.7-1.8 2.9-3.2 4.8-4.1 5.9-2.8 12 0.2 13.3 6.6 0.4 3 0.6 6 0.5 9 0 3.3-0.1 6.5 0 9.8 0 1.3-0.3 1.8-1.7 1.8s-1.7-0.4-1.7-1.7c0.1-4.5 0-9.1 0-13.6 0-1 0-1.9-0.1-2.9-0.4-3-1.3-5.6-4.7-6.4s-5.9 0.7-7.9 3.1c-1.3 1.5-2 3.4-2.2 5.4-0.4 4.8-0.3 9.5-0.3 14.3 0 1.2-0.2 1.9-1.6 1.8-1.3 0-1.8-0.3-1.8-1.7 0.1-8.1 0.1-16.2 0-24.3 0-1.4 0.4-1.7 1.7-1.7s1.8 0.5 1.6 1.8c0 0.7 0.1 1.5 0.1 2.8z"
  />
  <path
    fill="#15130F"
    d="m719.4 416.1c3.3-2.9 6.4-5.3 9.1-8 2-2 4.2-2.2 6.9-1.8-4.1 3.6-8 7.1-12 10.5-1.2 1-1.3 1.5 0 2.6 4.3 3.6 8.4 7.4 12.8 11.3-2.8 0.6-4.9 0.2-6.9-1.8-3-3-6.3-5.7-10-8.9 0 3.5-0.1 6.5 0 9.4 0 1.4-0.5 1.6-1.6 1.5s-1.8 0-1.8-1.5c0.1-10.5 0.1-21 0-31.5 0-1.5 0.7-1.4 1.7-1.5s1.7 0.2 1.7 1.5c0.1 6 0.1 11.7 0.1 18.2z"
  />
  <path
    fill="#15130F"
    d="m545.7 405.6c-7.1-0.2-13 5.5-13.2 12.6s5.5 13 12.6 13.2h0.7c6.9 0.2 12.6-5.2 12.8-12.1v-0.9c0.2-6.9-5.3-12.7-12.3-12.9-0.2 0.1-0.4 0.1-0.6 0.1zm0 22.9c-5.5 0-9.7-4.5-9.7-10.2 0-5.3 4.3-9.7 9.6-9.8 5.3 0 9.6 4.6 9.6 10.3 0.1 5.3-4.1 9.6-9.5 9.7 0.1 0 0.1 0 0 0z"
  />
  <path
    fill="#15130F"
    d="m210.6 405.6c-7-0.1-12.7 5.5-12.8 12.5v0.5c0 7.3 5.6 12.8 13 12.8s12.8-5.5 12.8-13c0.1-6.9-5.4-12.7-12.4-12.8h-0.6zm0 22.9c-5.4 0-9.5-4.4-9.5-10 0-5.4 4.2-9.8 9.6-10 5.3 0 9.5 4.6 9.5 10.1 0.2 5.3-4 9.7-9.3 9.9h-0.3z"
  />
  <path
    fill="#161410"
    d="m227.3 363.3c0 2.5-0.1 5.1 0 7.6 0.2 4.6 3.2 7.6 7.5 7.5s7.2-3.1 7.3-7.7c0.1-5.1 0.1-10.2 0-15.3 0-1.5 0.4-1.9 1.9-1.9s1.6 0.8 1.5 1.9c-0.2 5.9 0.6 11.8-0.5 17.6-1.1 6.1-5 8.9-11.3 8.7-5.2-0.2-9-4-9.6-9.7s-0.2-11.4-0.4-17.2c0-1.6 0.9-1.3 1.9-1.3s1.6 0 1.6 1.3c-0.1 2.8 0 5.6 0 8.4h0.1v0.1z"
  />
  <path
    fill="#15130F"
    d="m491.8 410.4c2.3-2.7 4.7-4.3 7.7-4.7 6-0.8 10.3 2.7 10.7 9.2 0.3 4.9 0.1 9.9 0.2 14.8 0 1.7-1 1.1-1.9 1.3-1.1 0.1-1.5-0.3-1.5-1.4 0.1-4.1 0-8.3 0-12.4 0-1-0.1-1.9-0.2-2.9-0.6-6.2-6.9-6.9-10.5-4.4-2.5 1.5-4 4.2-4.2 7.1-0.4 4.1-0.3 8.3-0.2 12.4 0 1.4-0.4 1.7-1.7 1.7s-1.7-0.5-1.7-1.8c0-7.1 0.1-14.1 0-21.2 0-1.4 0.3-1.9 1.8-1.9s1.7 0.7 1.5 1.9c-0.1 0.4 0 1 0 2.3z"
  />
  <path
    fill="#15130F"
    d="m157.2 410.2c2.8-3 5.8-4.8 9.6-4.6 4.1 0 7.7 2.9 8.4 7 1.1 5.7 0.3 11.6 0.5 17.4 0.1 1.6-1.2 0.8-1.9 1-0.9 0.2-1.4-0.1-1.4-1.2 0.1-3.6 0-7.1 0-10.7v-2.6c-0.1-5.1-2.1-7.6-6.1-7.8-4.5 0-8.2 3.3-8.8 7.7-0.4 4.4-0.5 8.7-0.3 13.1 0 1.1-0.1 1.8-1.5 1.7-1.1-0.1-1.9 0-1.9-1.6 0.1-7.2 0.1-14.5 0-21.7 0-1.5 0.7-1.5 1.9-1.6 1.4-0.1 1.6 0.5 1.5 1.6v2.3z"
  />
  <path
    fill="#15130F"
    d="m772.9 410.4c2.3-2.8 4.8-4.4 7.8-4.8 6-0.7 10.2 2.9 10.6 9.4 0.3 4.8 0.1 9.7 0.2 14.5 0 1.4-0.7 1.3-1.6 1.3s-1.9 0.3-1.7-1.2v-1.4-12.2c-0.1-4.6-1.7-6.8-5.1-7.5s-7.2 1.4-8.9 4.9c-1 1.9-1 4-1 6-0.2 3.3-0.1 6.5-0.1 9.8 0 1.1-0.1 1.8-1.5 1.7-1.1-0.1-1.9 0-1.9-1.6 0.1-7.2 0.1-14.5 0-21.7 0-1.5 0.7-1.5 1.8-1.6 1.4-0.1 1.6 0.5 1.5 1.6-0.2 0.8-0.1 1.5-0.1 2.8z"
  />
  <path
    fill="#161410"
    d="m743.6 414.7c0 2.4-0.1 4.8 0 7.1 0.2 4.2 3.3 6.8 7.7 6.7 3.8 0.1 7-2.9 7.2-6.7v-0.3c0.1-4.5 0.1-9 0-13.6 0-1.4 0.2-1.9 1.8-1.9s1.6 0.6 1.6 1.8c-0.2 5.2 0.5 10.5-0.5 15.7-1.1 5.6-5.1 8.2-11.7 7.9-5-0.2-9-4.1-9.3-9.1-0.5-4.9-0.2-9.8-0.3-14.8 0-1.5 0.7-1.5 1.7-1.5s1.8 0 1.8 1.5c-0.1 2.4 0 4.8 0 7.2z"
  />
  <path
    fill="#15130F"
    d="m362.5 431.4c-7.6 0-13.4-5.4-13.5-12.4 0-7.5 5.7-13.2 13.4-13.3 4 0 7.7 0.9 10.6 3.9 0.5 0.5 1.7 1.1 0.8 2-0.8 0.7-1.7 1.6-3.1 0.2-4.3-4.3-11.2-4.4-15.6-0.2l-0.4 0.4c-2.8 3.2-3.3 7.8-1.1 11.5 2.3 3.8 6.7 5.8 11 5 2.4-0.3 4.6-1.5 6.2-3.2 1.3-1.5 2.1-0.3 2.9 0.3 1.2 1-0.2 1.5-0.6 2-2.5 2.5-6.1 3.8-10.6 3.8z"
  />
  <path
    fill="#15130F"
    d="m426.1 373.2c2.3-5.7 4.7-11.2 6.9-16.8 0.8-2.2 1.8-3.4 4.6-2.5-3.8 9.2-7.5 18.3-11.3 27.5h-0.6c-3.8-9.1-7.5-18.3-11.3-27.5 2.4-0.8 3.6-0.1 4.5 2.2 1.9 5.1 4.1 10.1 6.2 15.1 0.1 0.7 0.1 1.4 1 2z"
  />
  <path
    fill="#15140F"
    d="m143.6 375.7c1.2 0.8 2.2 1.9 3.6 2.4 2.1 0.8 4.4 0 5.6-1.8 1.2-1.9 0.7-4.4-1.1-5.7-1.6-1.2-3.3-2.1-5-3.3-2.3-1.6-3.9-3.7-3.9-6.7 0-3.4 1.6-6.1 4.5-7.1 3.2-0.9 6.5 0.2 8.6 2.8 1.3 1.7-1 1.9-1.2 3.1-1.3-0.8-2.2-1.9-3.6-2.5-1.6-0.8-3.4-0.3-4.4 1.1-1.1 1.2-1.2 3.1-0.2 4.4s2.3 2.4 3.9 3.1c1.5 0.8 3 1.8 4.2 3 3 3.3 2.8 8.4-0.6 11.4l-0.1 0.1c-3.1 2.8-9.1 2.2-11.6-1.1-0.7-0.8-0.7-0.8 1.3-3.2z"
  />
  <path
    fill="#191713"
    d="m519.6 419.8v-9.1c0-1.2-0.1-2-1.6-1.8-1.1 0.2-1.7-0.1-1.7-1.5 0-1.5 0.8-1.5 1.8-1.4 1.4 0.2 1.5-0.6 1.5-1.7 0-1.4 0-2.9 0.2-4.3 0.6-2.9 3.4-4.8 6.3-4.3 0.6 0.1 1.2 0.4 1.8 0.7 1 0.7 0.6 1.8 0.4 2.5s-1 0.2-1.5 0.1c-2.8-0.6-3.7-0.1-3.8 2.7v1c-0.1 3.1-0.1 3.1 3 3.2 0.9 0 2-0.5 2 1.3s-1.1 1.6-2.1 1.5c-2.5-0.4-3.1 0.6-3 3 0.2 5.7 0 11.4 0.1 17.2 0 1.2-0.2 1.8-1.6 1.8s-1.9-0.4-1.8-1.9c0.1-2.8 0-5.9 0-9z"
  />
  <path
    fill="#191613"
    d="m194 399.6c-0.7-0.1-1.2-0.2-1.6-0.3-3-0.8-3.8-0.2-3.9 2.8 0 0.4 0 0.8-0.1 1.2-0.5 2.4 0.5 3.2 2.9 2.9 0.7-0.1 2-0.8 2.2 0.9 0.1 1.5-0.4 2-1.9 2-3.1-0.1-3.1 0-3.1 3.1v16.9c0 1.3-0.1 2-1.7 2s-1.8-0.6-1.8-2c0.1-6 0-11.9 0-17.9 0-1.4 0-2.5-1.9-2.2-1 0.2-1.3-0.3-1.3-1.3s0.1-1.8 1.4-1.5c1.7 0.3 2-0.5 1.9-2-0.1-1-0.1-2.1 0-3.1 0.4-4.2 3.9-6.1 7.9-4.6 1.8 0.7 0.5 2 1 3.1z"
  />
  <path
    fill="#15130E"
    d="m187.8 368.9c0-3.2-0.1-6.4 0-9.5 0.1-2-0.4-2.8-2.4-2.4-1.2 0.2-2.1 0.1-2-1.6 0.1-1.3 0.3-2 1.7-1.7 2.4 0.5 2.9-0.7 2.7-2.8-0.2-2 0-4-0.1-6-0.1-1.3 0.3-1.8 1.7-1.8s1.7 0.4 1.7 1.7c-0.1 2.4 0 4.8-0.1 7.1-0.1 1.4 0.3 1.9 1.7 1.7 0.8-0.1 1.6 0 2.4 0 1.5-0.1 1.1 1 1.1 1.8s0.2 1.6-1.1 1.6-3.2-0.7-3.8 0.3-0.3 2.9-0.3 4.4v17.9c0 1.3-0.2 1.8-1.6 1.8s-1.8-0.4-1.7-1.7c0.1-3.7 0.1-7.2 0.1-10.8z"
  />
  <path
    fill="#15130E"
    d="m329.5 419.7c0 3.3-0.1 6.5 0 9.8 0.1 1.5-0.6 1.5-1.7 1.5s-1.7-0.1-1.7-1.5c0.1-6.1 0-12.2 0.1-18.3 0-1.8-0.5-2.3-2.2-2.2-0.7 0.1-2 0.8-2.2-0.9s0.4-2.2 2-1.9c2 0.4 2.7-0.4 2.4-2.4-0.2-1.7 0-3.5-0.1-5.2 0-1.3 0-2 1.7-2s1.7 0.9 1.6 2c0 2 0.1 4 0 6-0.1 1.4 0.4 1.8 1.7 1.6 0.7-0.1 1.4 0 2.1 0 1-0.1 1.4 0.3 1.4 1.4s-0.2 1.5-1.4 1.6c-3.8 0.2-3.8 0.2-3.8 4l0.1 6.5z"
  />
  <path
    fill="#15130E"
    d="m664 419.7c0 3.3-0.1 6.5 0 9.8 0.1 1.4-0.6 1.5-1.7 1.5s-1.7-0.1-1.7-1.5c0.1-6.1 0-12.2 0.1-18.3 0-1.8-0.5-2.3-2.2-2.2-0.7 0.1-2 0.8-2.2-0.9s0.4-2.2 2-1.9c2 0.4 2.7-0.4 2.4-2.4-0.2-1.7 0-3.5 0-5.2-0.1-1.3 0-2 1.7-2s1.7 0.9 1.6 2c0 2 0.1 4 0 6-0.1 1.4 0.4 1.8 1.7 1.6 0.7-0.1 1.4 0 2.1 0 1-0.1 1.4 0.3 1.4 1.4s-0.2 1.5-1.4 1.5c-3.8 0.1-3.8 0.2-3.8 4v6.6z"
  />
  <path
    fill="#15130E"
    d="m521.4 357.1c1.9-2.5 3.8-4.3 6.8-4 0.9 0.1 2.3 0.1 2 1.3-0.2 0.9-0.3 2.8-2.5 2.2s-3.5 1-4.5 2.7c-1.3 2.3-1.9 4.9-1.8 7.6-0.1 4 0 8.1 0 12.2 0 1.1 0.4 2.3-1.6 2.3s-1.7-1-1.7-2.2v-23.4c0-1.1-0.4-2.3 1.6-2.3s1.7 1.1 1.7 2.3c-0.1 0.3-0.1 0.6 0 1.3z"
  />
  <path
    fill="#15130F"
    d="m233.1 409.3c2.2-2.5 4.4-4.1 7.4-3.5 0.5 0.1 1.8 0 1.4 1.1-0.3 0.8-0.7 1.9-1.8 2-4.6 0.4-6 1.6-6.8 6.2-0.8 4.7-0.3 9.5-0.4 14.3 0 1.2-0.2 1.6-1.6 1.7-1.5 0-1.8-0.4-1.8-1.8 0.1-7.1 0-14.1 0-21.2 0-1.1-0.2-2 1.5-1.9 1.4 0 2.1 0.3 1.8 1.8 0.2 0.3 0.2 0.8 0.3 1.3z"
  />
  <path
    fill="#15130F"
    d="m567.6 409.2c2-2.2 3.9-3.8 6.7-3.6 0.9 0.1 2.3 0.2 2.2 1.1s-0.5 2.4-2.5 1.9c-2.6-0.6-5.3 2.1-5.9 5.9-0.9 4.8-0.3 9.6-0.4 14.5 0 1.2 0 2.1-1.7 2-1.4-0.1-1.7-0.4-1.7-1.8 0.1-7.1 0-14.1 0-21.2 0-1.2-0.1-2.1 1.6-2s1.9 0.7 1.7 2v1.2z"
  />
  <path
    fill="#181612"
    d="m333.3 367.4c0 4.1-0.1 8.3 0 12.4 0 1.4-0.5 1.5-1.7 1.5s-1.7 0-1.7-1.5c0.1-8.2 0.1-16.5 0-24.8 0-1.4 0.6-1.5 1.7-1.5s1.7 0.1 1.7 1.5v12.4z"
  />
  <path
    fill="#181612"
    d="m750.9 367.5v12.1c0 1.3-0.3 1.8-1.7 1.8s-1.7-0.4-1.7-1.8c0.1-8.1 0.1-16.2 0-24.3 0-1.4 0.4-1.7 1.7-1.8s1.7 0.5 1.7 1.8v12.2z"
  />
  <path
    fill="#181612"
    d="m664.1 367.5v12.1c0 1.3-0.3 1.8-1.7 1.8s-1.7-0.4-1.7-1.8c0.1-8.1 0.1-16.2 0-24.3 0-1.4 0.4-1.7 1.7-1.8s1.7 0.5 1.7 1.8c-0.1 4.1 0 8.1 0 12.2z"
  />
  <path
    fill="#191713"
    d="m146.7 418.5c0 3.6-0.1 7.3 0 11 0 1.4-0.6 1.5-1.7 1.5s-1.7-0.1-1.7-1.5c0.1-7.3 0.1-14.6 0-21.9 0-1.4 0.6-1.5 1.7-1.5s1.7 0.1 1.7 1.5v10.9z"
  />
  <path
    fill="#191713"
    d="m342.9 418.7c0 3.6-0.1 7.1 0 10.7 0 1.4-0.5 1.5-1.7 1.5s-1.8 0-1.7-1.5c0.1-7.3 0.1-14.6 0-21.9 0-1.4 0.6-1.5 1.7-1.5s1.8 0 1.7 1.5c-0.1 3.8 0 7.5 0 11.2z"
  />
  <path
    fill="#191713"
    d="m478 418.3c0-3.5 0.1-7 0-10.5 0-1.4 0.4-1.7 1.7-1.7s1.7 0.5 1.6 1.8v21.4c0 1.3-0.3 1.8-1.7 1.7s-1.7-0.4-1.7-1.8c0.1-3.6 0.1-7.3 0.1-10.9z"
  />
  <path
    fill="#191713"
    d="m674.1 418.3c0-3.5 0.1-7 0-10.5 0-1.4 0.4-1.7 1.7-1.7s1.7 0.5 1.7 1.8c-0.1 7.1-0.1 14.3 0 21.4 0 1.3-0.3 1.8-1.7 1.7s-1.7-0.4-1.7-1.8c0.1-3.6 0-7.3 0-10.9z"
  />
  <path
    fill="#1E1B18"
    d="m665.2 345.6c-0.3 1.5-0.9 2.8-2.7 2.8-1.4 0.1-2.6-0.9-2.7-2.4v-0.5c-0.1-1.4 0.9-2.6 2.3-2.8h0.3c1.9-0.1 2.6 1.2 2.8 2.9z"
  />
  <path
    fill="#1C1916"
    d="m746.6 345.5c0.3-1.5 0.9-2.8 2.6-2.9s2.8 1.2 2.8 2.8-0.8 2.9-2.8 2.9-2.3-1.3-2.6-2.8z"
  />
  <path
    fill="#1A1814"
    d="m331.6 342.6c1.5-0.1 2.8 1 2.9 2.4v0.5c0.2 1.4-0.8 2.6-2.2 2.8h-0.4c-1.9 0-2.7-1.2-2.7-2.9-0.2-1.4 0.9-2.7 2.4-2.8-0.1 0-0.1 0 0 0z"
  />
  <path
    fill="#1D1B18"
    d="m341.1 401.4c-1.4 0-2.5-1.2-2.4-2.6v-0.2c0.1-1.5 1.4-2.5 2.9-2.4 1.4 0.1 2.4 1.3 2.4 2.6 0 1.6-1.1 2.5-2.9 2.6z"
  />
  <path
    fill="#1D1A17"
    d="m479.5 401.4c-1.4 0-2.5-1.1-2.5-2.5v-0.3c0-1.3 1-2.4 2.3-2.5h0.3c1.3-0.2 2.5 0.8 2.7 2.1v0.5c0.1 1.7-0.9 2.6-2.8 2.7z"
  />
  <path
    fill="#1D1A17"
    d="m676 401.4c-1.7 0-2.8-0.9-2.8-2.6-0.1-1.4 0.9-2.6 2.2-2.7h0.5c1.3-0.1 2.5 0.8 2.6 2.2v0.3c0.2 1.4-0.8 2.6-2.1 2.8h-0.4z"
  />
  <path
    fill="#1D1A17"
    d="m145 401.4c-1.5 0-2.6-1.3-2.6-2.7 0-1.5 1.3-2.6 2.7-2.6h0.1c1.3-0.1 2.5 1 2.5 2.3v0.3c0.2 1.6-0.8 2.6-2.7 2.7z"
  />
  <path
    d="m858 173c0.6-1.6 1.8-2.2 3.5-2.2 4.4 0.1 8.6 0 13 0 0.5 0 0.9 0.4 1 0.9v0.1c0.1 1.1-0.3 2.2-0.7 3.2-0.9 2-1.6 3.5-2.6 6-23.2 52.8-46.2 105.7-69.3 158.6-0.6 1.1-1.7 1.9-3 1.9-4.4-0.1-8.9 0-13.6 0-0.7 0-1.2-0.7-0.9-1.4 2.2-5.2 4.4-10.2 6.6-15.2 5.3-12.2 10.7-24.4 16-36.6 0.7-1.3 0.7-2.9 0-4.3-16.5-37-33-74-49.5-111-0.1-0.3-0.3-0.7-0.4-1-0.2-0.6 0.2-1.3 0.9-1.3h14.5c1.2 0 1.4 0.8 1.7 1.6l27.5 61.5 13.8 30.9c0.4 0.8 1.5 0.8 1.8-0.1l39.7-91.6z"
  />
  <path
    d="m735.6 295.5h-22.3c-0.9 0-1.5-0.7-2-1.2l-59.8-53.7c-0.4-0.3-0.8-0.6-1.6-1.3v2.9c0 17 0 33.9 0.1 50.9 0 1.9-0.6 2.4-2.4 2.3h-12.4c-1.3 0-1.7-0.4-1.6-1.6v-1.2c0-55.9 0-111.7-0.1-167.6 0-2.4 0.6-2.9 2.8-2.8h11.2c1.9-0.1 2.3 0.6 2.3 2.4-0.1 25-0.1 50 0 75.1v20.8c2.4-2 4.4-3.7 6.4-5.4 16.4-14.3 32.8-28.5 49.2-42.8 1.1-1.1 2.7-1.7 4.3-1.6 7 0.1 14 0 21.5 0-2.3 2-4.2 3.7-6.1 5.4-20.1 17.4-40.2 34.7-60.4 52.1-1.7 1.4-1.7 2.1-0.1 3.6 23 20.7 46.2 41.4 69.1 62.3l1.9 1.4z"
  />
  <path
    d="m528.5 298.5c-25.6 0-44.7-8.4-58.9-26.9-9.9-12.9-13.3-27.5-11.9-43.6 2.4-28.5 24-54.4 57.4-59.3 18.2-2.7 35.4 0.3 51.4 9.6 7 4.2 12.9 9.9 17.3 16.9 0.8 1.2 0.8 1.7-0.6 2.5-3.3 2-6.6 4-9.9 6.2-1.3 0.9-1.8 0.5-2.6-0.6-8.2-10.3-18.7-17.1-31.8-19.5-22.9-4.2-45.4 2.6-58.4 23.8-15.1 24.5-4.9 59.7 24.1 71.6 21.6 8.8 48.8 4.9 65.9-16.2 1-1.3 1.6-1.5 3-0.6 3.1 2.2 6.3 4.3 9.5 6.3 1.5 0.9 1.4 1.6 0.5 2.8-9.2 12.6-21.6 20.4-36.6 24.3-6.1 1.8-12.3 2.7-18.4 2.7z"
  />
  <path
    d="m161.3 299.5c-13.8-0.4-25.6-5.2-35.2-15.5-1.2-1.3-1.5-2.1-0.2-3.5 2.6-2.7 5-5.5 7.4-8.4 1-1.3 1.7-1.3 2.8-0.1 5.2 5.6 11.2 10.2 18.9 11.8 9.7 2 18.1-0.5 24.5-8.1 6.6-7.9 5.6-19.6-2.3-26.3-0.1-0.1-0.2-0.1-0.2-0.2-6-5-12.9-8.4-19.7-12-7.2-3.9-14.3-8-19.5-14.3-8.3-10-9.8-21.5-5.4-33.4 4.3-11.7 13.3-18.2 25.6-20.3 13.2-2.1 24.4 2.6 34.6 10.4 2.2 1.7 5.7 3.3 5.9 5.5s-2.1 4.2-3.9 6.2c-1.4 1.6-4.1 3.9-5.8 4.1-1.3 0.2-3.2-2.3-4.7-3.6-5.4-4.3-11.2-7.4-18.1-8.3-9.6-1.3-19.3 5.3-20.9 14.8-1.1 6.5 1.9 11.8 6.5 16 4.7 4.3 10.2 7.3 15.8 10.3 6.2 3.2 12.2 6.9 17.9 11 20.8 15.1 17.8 45.3-3.2 58.1-6.3 4-13.5 5.9-20.8 5.8z"
  />
  <path
    d="m281.6 294c0 2-0.5 2.4-2.4 2.4h-11.7c-2 0-2.3-0.6-2.3-2.4 0.1-35.2 0-70.5 0.1-105.6 0-2.3-0.4-3-2.9-3-5.7 0-11.3 0-17 0.1-1.4 0-2.1-0.2-2-1.9v-10.3c-0.1-1.6 0.5-1.8 1.9-1.8 5.9 0.1 11.8 0 17.7 0.1 1.8 0 2.4-0.4 2.4-2.3-0.1-14 0-27.9-0.1-41.8 0-1.8 0.4-2.4 2.4-2.4h12.2c1.7 0 2 0.5 2 2-0.1 14 0 27.9-0.1 41.8 0 2.3 0.7 2.7 2.8 2.6 6.9-0.2 13.9 0 20.8-0.1 1.6 0 2 0.4 2 2v10c0.1 1.6-0.5 2-2 2-7.1-0.1-14.2 0-21.3-0.1-1.8 0-2.2 0.2-2.2 2.2l-0.3 106.5z"
  />
  <path
    fill="#1D1A17"
    d="m315 260.7c1.8 1.3 8 4.3 9.9 5.5 4.7 2.8 4.7 2.8 8.5 6.3 3.2 2.6 4.9 6.6 4.5 10.8-0.4 2.8-1 5.6-1.8 8.4-0.9 3.2-1.8 6.5-1.4 9.9 0.8 6.5 5.1 10.2 10.8 12.3 13.3 5.1 27 7.8 41.2 5.8 7.8-1 14.3-4.7 18.4-11.8 4.4-7.5 8.5-15.4 12-23.3 1.1-2.3 1.9-4.7 2.4-7.2 0.6-2.1-0.2-4.3-2-5.5-2.1-1.6-4.1-3.5-5.9-5.5 2.5-0.2 4.5-0.2 6.6-0.6 3.8-0.7 5-2.5 4-6.3-2.2-8.9-0.2-16.6 7.1-22.5 1.9-1.5 3.7-3 5.6-4.4 3-2.1 5.8-4.6 8.2-7.3 3.4-3.9 4.9-9.2 4-14.2-1.1-6.8-4.7-12.4-8.6-17.9-4.8-6.7-10.1-13.2-13.8-20.7-5.3-10.9-5.8-21.4 2.4-31.3 6.5-7.9 7.4-16.9 3.9-26.4-5.7-15.2-14.4-28.6-25-40.8-1.9-2.1-4.2-4-6.8-5.2-1.8-1-3.9-1.6-5.9-1.5-3.2 0-6.3 1.3-8.5 3.7-2.1 2.2-4 4.8-5.1 7.7-2.6 5.6-4.4 11.6-5.5 17.7-0.7 3.6-2.8 4.8-5.9 5.6-4.2 1.1-8.2 0-12.2-1.3-5.4-1.7-10.4-4.3-15.9-5.8-6.7-1.9-13.4-1.9-18.4 3.6-7.1 7.8-10.1 17-8.1 27.6 1.3 6.4 4.8 11.7 8.5 16.9 3.4 4.8 7.1 9.4 10 14.6 5.1 9.4 4.8 22.4-3.6 31.1-2 2.1-4 4.1-6.1 6.1-5.8 5.4-11.9 10.4-17.2 16.4-8.6 9.7-10.8 22.4-6.3 33.1 2.4 5.7 6.6 10.4 11.8 13.7l4.2 2.7zm8.1-1.9c-6.7-3.6-11.2-7.2-15.6-12.3-2.5-3-3.8-6.7-3.9-10.6-0.3-2.1-0.3-4.3 0-6.4 0.5-5.9 3.6-10.4 7.4-14.7 5.8-6.6 12.9-11.9 19.1-18.1 5.1-4.9 9.3-10.3 10.9-17.3 2.5-10.1 0.4-19.5-5.2-28-3.6-5.5-7.5-10.7-11.2-16.1-3.2-4.7-5.5-9.9-5.1-15.8 0.4-5.5 2.3-10.7 5.6-15 2.8-3.7 6.6-4.4 10.9-3.6 6.2 1.3 11.8 4.3 17.8 6.2 4.5 1.4 9 2.8 13.8 1.7 7-1.5 11.4-3.6 12.7-11.4 1-6.2 3-12.1 5.9-17.6 1.3-2.4 2.6-4.8 5.5-5.5 0.4-0.2 0.7-0.2 1.1-0.2 0.5 0 0.9 0.1 1.4 0.2 4 0.9 6.5 3.8 8.9 6.7 5.4 6.3 9.7 13.4 14 20.5 3.2 5.5 6.3 11.2 8 17.3 0.3 1.1 0.6 2.3 0.6 3.4 0.4 2.1 0.4 4.3 0 6.3 0 2.1-1 4-2.1 5.7-2.5 4.3-5.9 7.8-7.7 12.5-0.9 2.5-1.5 5-1.8 7.6-0.2 1.5-0.2 3.1-0.1 4.6 0.1 0.4 0.1 0.8 0.2 1.2 0.9 9.7 5.3 17.8 10.7 25.6 4.1 5.9 8.9 11.6 12.4 17.9 2.4 4.1 4.3 8.5 2.8 13.4-1.1 3.9-4.2 6.3-7.2 8.7-4.4 3.6-9.3 6.6-13 11.2-3.1 3.8-4.9 8.4-5.4 13.3-0.3 1.6-0.3 3.2 0 4.8l0.1 0.7c0.3 3.9 0.3 3.8-3.8 4.1-2.6 0.2-5.2 0.6-6.4 3.3s-0.1 4.9 1.6 7c1.3 1.7 2.8 3.1 4.4 4.4 2 1.3 2.2 2.9 1.3 5.1-2.2 5.4-4.9 10.5-7.5 15.7-1.5 2.9-3.4 5.6-4.8 8.5-3.3 6.6-9.2 9-16 9.7-11.6 1.1-22.8-1.2-33.8-4.7-0.6-0.2-1.2-0.5-1.7-0.7-7-3.2-8.2-5.6-6.3-13.1 0.9-3.7 2.1-7.4 2.5-11.2 0.6-6.7-2.1-11.8-6.6-16-1.3-1.3-2.8-2.3-4.4-3.2l-10-5.8z"
  />
  <path
    fill="#1D1A17"
    d="m382 111.6c-1.7 0-2.5 0.6-2.7 2.3-0.6 4.3-1.3 8.5-2 12.7-1.6 9.6-3.1 19.2-4.6 28.7-1.7 10.4-3.3 20.9-5 31.3-1.8 11.6-3.7 23.2-5.6 34.8-1.3 7.9-2.5 15.8-4 23.7-0.2 1.5-0.3 2.5 1 3.2h13.9 11.5c0.9-0.6 1.3-1.4 1.3-2.5l5.4-33.9c1.7-10.5 3.4-21.1 5.1-31.6 1.7-10.4 3.3-20.9 5.1-31.3 1.8-11.5 3.6-23 5.5-34.6 0.4-2.2-0.1-2.9-2.4-2.9l-22.5 0.1z"
  />
  <path
    fill="#1D1A17"
    d="m369.3 255.7c-3.1 0-6.1 0.6-8.9 1.7-6.5 2.7-10.9 7.3-12.3 14.4-0.3 1.4-0.3 2.9 0 4.4 0.1 0.6 0.2 1.3 0.3 1.8 2.3 8.2 9.3 13.5 18.9 14.5 1.1 0.1 2.2 0.1 3.3 0 10.4-1.1 17.6-7.1 19.2-16.4 0.2-1.4 0.1-2.6 0-3.8-0.4-3.3-1.8-6.5-4-9-4.1-4.8-10.1-7.5-16.5-7.6z"
  />
</svg>
