<svg
  width="525.74"
  height="100"
  version="1.1"
  viewBox="0 0 139.1 26.458"
  xmlns="http://www.w3.org/2000/svg"
  xmlns:xlink="http://www.w3.org/1999/xlink">
  <g transform="translate(9.224 -2.208) scale(.7732)" clip-path="url(#q)">
    <path
      d="M170.272 3.845a27.634 27.634 0 013.051 3.034 17.047 17.047 0 012.135 3.14c.564 1.082.982 2.21 1.252 3.387a16.66 16.66 0 01.406 3.739c0 2.61-.583 5.021-1.747 7.232-1.164 2.21-2.84 4.163-5.027 5.856h-.035l1.552 2.117a20 20 0 003.51-3.193 18.98 18.98 0 002.505-3.704 18.28 18.28 0 002.028-8.378c0-2.94-.664-5.733-1.992-8.379-1.33-2.646-3.347-4.968-6.05-6.967z"
    />
  </g>
  <defs>
    <clipPath id="n">
      <path
        d="M103.115 371.165H78.934v6.477h24.181zM73.753 392.35l-16.085-15.167-4.75 4.75 13.791 12.846v.27l-13.791 12.846 4.75 4.75 16.085-15.167zM39.14 358.89h97v97h-97z"
      />
    </clipPath>
    <clipPath id="g" />
    <clipPath id="j" />
    <clipPath id="h" />
    <clipPath id="i" />
    <clipPath id="m" />
    <clipPath id="q" />
    <clipPath id="l" />
    <clipPath id="k" />
    <clipPath id="o" />
    <clipPath id="f">
      <path d="M0 841.89h595.28V0H0z" />
    </clipPath>
    <clipPath id="e">
      <path d="m39.14 455.89h97v-97h-97z" />
    </clipPath>
    <clipPath id="d">
      <path
        d="M103.115 371.165H78.934v6.477h24.181zM73.753 392.35l-16.085-15.167-4.75 4.75 13.791 12.846v.27l-13.791 12.846 4.75 4.75 16.085-15.167zM39.14 358.89h97v97h-97z"
      />
    </clipPath>
    <clipPath id="c">
      <path
        d="M178.4 426.89c-2.6-1-4.934-2.5-7-4.5-2.067-2-3.735-4.534-5-7.6-1.267-3.067-1.9-6.668-1.9-10.801 0-3.467.5-6.683 1.5-9.649 1-2.968 2.5-5.518 4.5-7.651s4.516-3.816 7.55-5.049c3.033-1.232 6.55-1.85 10.55-1.85 3.266 0 6.2.3 8.8.9 2.6.6 4.4 1.166 5.4 1.7l-1.1 7c-1.068-.534-2.634-1.035-4.7-1.5-2.067-.467-4.567-.7-7.5-.7-5.134 0-9.118 1.25-11.95 3.75-2.834 2.499-4.417 6.15-4.75 10.95H206v2.9c0 7.933-1.7 13.85-5.1 17.75-3.4 3.9-8.234 5.85-14.5 5.85-2.734 0-5.4-.5-8-1.5m-4.101-13.599A14.094 14.094 0 00177 417.39c1.132 1.2 2.482 2.166 4.049 2.9 1.566.733 3.317 1.1 5.251 1.1 3.4 0 6.133-1.15 8.2-3.45 2.065-2.3 3.1-5.417 3.1-9.35H173a17.103 17.103 0 001.299 4.701"
      />
    </clipPath>
    <clipPath id="x">
      <path
        d="M247.4 427.29l-11.5-16.2-12.5 16.2h-9.3l16.7-21.999a415.47 415.47 0 01-9.35-12.051c-3.168-4.235-5.85-8.35-8.05-12.35h8.499a82.445 82.445 0 002.701 4.3c1.065 1.6 2.215 3.25 3.45 4.95 1.233 1.7 2.516 3.383 3.85 5.05 1.333 1.666 2.6 3.265 3.8 4.8 1.2-1.467 2.416-3.034 3.65-4.699a129.655 129.655 0 003.55-5.051 133.299 133.299 0 003.15-4.95 64.188 64.188 0 002.45-4.4h9.201c-2.135 4.133-4.718 8.333-7.751 12.6a462.114 462.114 0 01-9.05 12.3l15.3 21.5z"
      />
    </clipPath>
    <clipPath id="w">
      <path
        d="M278.401 426.89c-2.601-1-4.935-2.5-7.001-4.5-2.067-2-3.734-4.534-5-7.6-1.267-3.067-1.9-6.668-1.9-10.801 0-3.467.5-6.683 1.5-9.649 1-2.968 2.5-5.518 4.5-7.651s4.516-3.816 7.55-5.049c3.033-1.232 6.55-1.85 10.549-1.85 3.266 0 6.2.3 8.801.9 2.6.6 4.4 1.166 5.4 1.7l-1.1 7c-1.068-.534-2.635-1.035-4.7-1.5-2.067-.467-4.568-.7-7.5-.7-5.135 0-9.118 1.25-11.95 3.75-2.834 2.499-4.417 6.15-4.75 10.95H306v2.9c0 7.933-1.7 13.85-5.099 17.75-3.401 3.9-8.235 5.85-14.5 5.85-2.735 0-5.401-.5-8-1.5m-4.101-13.599a14.091 14.091 0 002.7 4.099c1.132 1.2 2.482 2.166 4.05 2.9 1.565.733 3.315 1.1 5.25 1.1 3.4 0 6.132-1.15 8.2-3.45 2.065-2.3 3.099-5.417 3.099-9.35H273c.2 1.599.632 3.165 1.3 4.701"
      />
    </clipPath>
    <clipPath id="v">
      <path
        d="M331.05 426.94c-3.1-.967-5.818-2.45-8.15-4.45-2.334-2-4.168-4.534-5.5-7.6-1.334-3.067-2-6.7-2-10.901 0-3.999.615-7.516 1.85-10.55 1.232-3.033 2.965-5.549 5.2-7.549 2.232-2 4.9-3.518 8-4.55 3.1-1.033 6.515-1.55 10.25-1.55 2.8 0 5.399.184 7.8.55 2.4.367 4.765.983 7.1 1.849l-1.2 6.901c-2.334-.799-4.484-1.317-6.45-1.55a52.092 52.092 0 00-6.15-.35c-2.667 0-5.1.333-7.3 1-2.2.666-4.084 1.683-5.651 3.05-1.566 1.366-2.784 3.1-3.648 5.2-.868 2.101-1.301 4.616-1.301 7.549 0 3.067.465 5.684 1.4 7.851.932 2.165 2.182 3.933 3.75 5.3 1.565 1.365 3.415 2.365 5.549 3 2.133.632 4.401.95 6.802.95 1.864 0 3.714-.117 5.549-.35 1.833-.234 3.85-.75 6.05-1.551l1.901 7.1c-2.536.801-4.919 1.351-7.151 1.651-2.235.3-4.485.45-6.75.45-3.534 0-6.85-.484-9.95-1.45"
      />
    </clipPath>
    <clipPath id="u">
      <path
        d="M377.5 431.39c-3.8-7.534-5.7-15.434-5.7-23.7 0-8.334 1.883-16.25 5.65-23.75 3.766-7.501 9.482-14.083 17.15-19.751l4.5 6.001c-3.334 2.867-6.218 5.735-8.649 8.6-2.436 2.866-4.436 5.832-6.001 8.899a41.36 41.36 0 00-3.5 9.602c-.768 3.331-1.15 6.865-1.15 10.599 0 7.401 1.633 14.232 4.901 20.5 3.265 6.266 8 11.8 14.2 16.6H399l-4.4 6c-7.6-5.535-13.301-12.067-17.1-19.6"
      />
    </clipPath>
    <clipPath id="t">
      <path
        d="M445.099 427.29v-39.2c-.198-.068-.599-.15-1.198-.249a51.668 51.668 0 00-2.101-.301c-.8-.1-1.65-.185-2.55-.249a35.198 35.198 0 00-2.65-.101c-4.001 0-6.85 1.2-8.55 3.601-1.7 2.399-2.55 6.464-2.55 12.198v24.301h-8.201v-26.101c0-3.133.301-5.999.901-8.599.6-2.6 1.633-4.85 3.1-6.75 1.466-1.9 3.366-3.367 5.7-4.4 2.333-1.032 5.266-1.55 8.8-1.55 3.999 0 7.483.267 10.45.8 2.966.533 5.349 1.033 7.15 1.499v45.101z"
      />
    </clipPath>
    <clipPath id="s">
      <path
        d="M476.599 440.29v-13h-9.8v-6.9h9.8v-21.6c0-3.135.234-5.884.701-8.249.466-2.367 1.316-4.351 2.549-5.951 1.234-1.6 2.951-2.799 5.151-3.6 2.201-.8 5.033-1.2 8.5-1.2 3 0 5.516.334 7.55 1 2.033.665 3.515 1.2 4.45 1.6l-1.2 7a22.774 22.774 0 00-4.201-1.6c-1.467-.4-3.399-.6-5.799-.6-1.735 0-3.201.165-4.399.499-1.201.333-2.186.951-2.951 1.852-.767.899-1.317 2.081-1.65 3.549-.334 1.466-.501 3.365-.501 5.7v21.6H504.4v6.9h-19.601v14.399z"
      />
    </clipPath>
    <clipPath id="r">
      <path
        d="M521.8 444.99c3.333-2.867 6.216-5.734 8.65-8.6 2.433-2.867 4.451-5.835 6.05-8.9a40.094 40.094 0 003.549-9.6c.766-3.334 1.152-6.867 1.152-10.6 0-7.4-1.651-14.234-4.951-20.5-3.3-6.265-8.05-11.8-14.25-16.6h-.1l4.4-6.001c3.8 2.736 7.116 5.751 9.95 9.051 2.833 3.3 5.2 6.8 7.1 10.499a51.82 51.82 0 015.75 23.75c0 8.334-1.884 16.251-5.649 23.751-3.769 7.5-9.486 14.083-17.151 19.75z"
      />
    </clipPath>
    <linearGradient
      id="p"
      x2="1"
      gradientTransform="matrix(0 -117.54 -117.54 0 356.8 450.99)"
      gradientUnits="userSpaceOnUse">
      <stop stop-color="#433032" offset="0" />
      <stop stop-color="#231f20" offset=".758" />
      <stop stop-color="#231f20" offset="1" />
    </linearGradient>
    <linearGradient
      id="a"
      x2="1"
      gradientTransform="matrix(0 -117.54 -117.54 0 356.8 450.99)"
      gradientUnits="userSpaceOnUse"
      xlink:href="#p"
    />
    <radialGradient
      id="b"
      cx="0"
      cy="0"
      r="1"
      gradientTransform="scale(-93.437 93.437) rotate(-45 5.001 3.89)"
      gradientUnits="userSpaceOnUse">
      <stop stop-color="#f04955" offset="0" />
      <stop stop-color="#f04955" offset=".483" />
      <stop stop-color="#f8974e" offset="1" />
    </radialGradient>
  </defs>
  <g transform="matrix(.27277 0 0 -.27277 -1.452 122.14)" clip-path="url(#o)">
    <g clip-path="url(#n)">
      <path
        d="M103.115 371.165H78.934v6.477h24.181zM73.753 392.35l-16.085-15.167-4.75 4.75 13.791 12.846v.27l-13.791 12.846 4.75 4.75 16.085-15.167zM39.14 358.89h97v97h-97z"
        fill="url(#b)"
      />
    </g>
  </g>
  <g transform="matrix(.27277 0 0 -.27277 -1.452 122.14)" clip-path="url(#m)">
    <path
      d="M178.4 426.89c-2.6-1-4.934-2.5-7-4.5-2.067-2-3.735-4.534-5-7.6-1.267-3.067-1.9-6.668-1.9-10.801 0-3.467.5-6.683 1.5-9.649 1-2.968 2.5-5.518 4.5-7.651s4.516-3.816 7.55-5.049c3.033-1.232 6.55-1.85 10.55-1.85 3.266 0 6.2.3 8.8.9 2.6.6 4.4 1.166 5.4 1.7l-1.1 7c-1.068-.534-2.634-1.035-4.7-1.5-2.067-.467-4.567-.7-7.5-.7-5.134 0-9.118 1.25-11.95 3.75-2.834 2.499-4.417 6.15-4.75 10.95H206v2.9c0 7.933-1.7 13.85-5.1 17.75-3.4 3.9-8.234 5.85-14.5 5.85-2.734 0-5.4-.5-8-1.5m-4.101-13.599A14.094 14.094 0 00177 417.39c1.132 1.2 2.482 2.166 4.049 2.9 1.566.733 3.317 1.1 5.251 1.1 3.4 0 6.133-1.15 8.2-3.45 2.065-2.3 3.1-5.417 3.1-9.35H173a17.103 17.103 0 001.299 4.701"
      fill="url(#a)"
    />
  </g>
  <g transform="matrix(.27277 0 0 -.27277 -1.452 122.14)" clip-path="url(#l)">
    <path
      d="M247.4 427.29l-11.5-16.2-12.5 16.2h-9.3l16.7-21.999a415.47 415.47 0 01-9.35-12.051c-3.168-4.235-5.85-8.35-8.05-12.35h8.499a82.445 82.445 0 002.701 4.3c1.065 1.6 2.215 3.25 3.45 4.95 1.233 1.7 2.516 3.383 3.85 5.05 1.333 1.666 2.6 3.265 3.8 4.8 1.2-1.467 2.416-3.034 3.65-4.699a129.655 129.655 0 003.55-5.051 133.299 133.299 0 003.15-4.95 64.188 64.188 0 002.45-4.4h9.201c-2.135 4.133-4.718 8.333-7.751 12.6a462.114 462.114 0 01-9.05 12.3l15.3 21.5z"
      fill="url(#a)"
    />
  </g>
  <g transform="matrix(.27277 0 0 -.27277 -1.452 122.14)" clip-path="url(#k)">
    <path
      d="M278.401 426.89c-2.601-1-4.935-2.5-7.001-4.5-2.067-2-3.734-4.534-5-7.6-1.267-3.067-1.9-6.668-1.9-10.801 0-3.467.5-6.683 1.5-9.649 1-2.968 2.5-5.518 4.5-7.651s4.516-3.816 7.55-5.049c3.033-1.232 6.55-1.85 10.549-1.85 3.266 0 6.2.3 8.801.9 2.6.6 4.4 1.166 5.4 1.7l-1.1 7c-1.068-.534-2.635-1.035-4.7-1.5-2.067-.467-4.568-.7-7.5-.7-5.135 0-9.118 1.25-11.95 3.75-2.834 2.499-4.417 6.15-4.75 10.95H306v2.9c0 7.933-1.7 13.85-5.099 17.75-3.401 3.9-8.235 5.85-14.5 5.85-2.735 0-5.401-.5-8-1.5m-4.101-13.599a14.091 14.091 0 002.7 4.099c1.132 1.2 2.482 2.166 4.05 2.9 1.565.733 3.315 1.1 5.25 1.1 3.4 0 6.132-1.15 8.2-3.45 2.065-2.3 3.099-5.417 3.099-9.35H273c.2 1.599.632 3.165 1.3 4.701"
      fill="url(#a)"
    />
  </g>
  <g transform="matrix(.27277 0 0 -.27277 -1.452 122.14)" clip-path="url(#j)">
    <path
      d="M331.05 426.94c-3.1-.967-5.818-2.45-8.15-4.45-2.334-2-4.168-4.534-5.5-7.6-1.334-3.067-2-6.7-2-10.901 0-3.999.615-7.516 1.85-10.55 1.232-3.033 2.965-5.549 5.2-7.549 2.232-2 4.9-3.518 8-4.55 3.1-1.033 6.515-1.55 10.25-1.55 2.8 0 5.399.184 7.8.55 2.4.367 4.765.983 7.1 1.849l-1.2 6.901c-2.334-.799-4.484-1.317-6.45-1.55a52.092 52.092 0 00-6.15-.35c-2.667 0-5.1.333-7.3 1-2.2.666-4.084 1.683-5.651 3.05-1.566 1.366-2.784 3.1-3.648 5.2-.868 2.101-1.301 4.616-1.301 7.549 0 3.067.465 5.684 1.4 7.851.932 2.165 2.182 3.933 3.75 5.3 1.565 1.365 3.415 2.365 5.549 3 2.133.632 4.401.95 6.802.95 1.864 0 3.714-.117 5.549-.35 1.833-.234 3.85-.75 6.05-1.551l1.901 7.1c-2.536.801-4.919 1.351-7.151 1.651-2.235.3-4.485.45-6.75.45-3.534 0-6.85-.484-9.95-1.45"
      fill="url(#a)"
    />
  </g>
  <g transform="matrix(.27277 0 0 -.27277 -1.452 122.14)" clip-path="url(#i)">
    <path
      d="M377.5 431.39c-3.8-7.534-5.7-15.434-5.7-23.7 0-8.334 1.883-16.25 5.65-23.75 3.766-7.501 9.482-14.083 17.15-19.751l4.5 6.001c-3.334 2.867-6.218 5.735-8.649 8.6-2.436 2.866-4.436 5.832-6.001 8.899a41.36 41.36 0 00-3.5 9.602c-.768 3.331-1.15 6.865-1.15 10.599 0 7.401 1.633 14.232 4.901 20.5 3.265 6.266 8 11.8 14.2 16.6H399l-4.4 6c-7.6-5.535-13.301-12.067-17.1-19.6"
      fill="url(#a)"
    />
  </g>
  <g transform="matrix(.27277 0 0 -.27277 -1.452 122.14)" clip-path="url(#h)">
    <path
      d="M445.099 427.29v-39.2c-.198-.068-.599-.15-1.198-.249a51.668 51.668 0 00-2.101-.301c-.8-.1-1.65-.185-2.55-.249a35.198 35.198 0 00-2.65-.101c-4.001 0-6.85 1.2-8.55 3.601-1.7 2.399-2.55 6.464-2.55 12.198v24.301h-8.201v-26.101c0-3.133.301-5.999.901-8.599.6-2.6 1.633-4.85 3.1-6.75 1.466-1.9 3.366-3.367 5.7-4.4 2.333-1.032 5.266-1.55 8.8-1.55 3.999 0 7.483.267 10.45.8 2.966.533 5.349 1.033 7.15 1.499v45.101z"
      fill="url(#a)"
    />
  </g>
  <g transform="matrix(.27277 0 0 -.27277 -1.452 122.14)" clip-path="url(#g)">
    <path
      d="M476.599 440.29v-13h-9.8v-6.9h9.8v-21.6c0-3.135.234-5.884.701-8.249.466-2.367 1.316-4.351 2.549-5.951 1.234-1.6 2.951-2.799 5.151-3.6 2.201-.8 5.033-1.2 8.5-1.2 3 0 5.516.334 7.55 1 2.033.665 3.515 1.2 4.45 1.6l-1.2 7a22.774 22.774 0 00-4.201-1.6c-1.467-.4-3.399-.6-5.799-.6-1.735 0-3.201.165-4.399.499-1.201.333-2.186.951-2.951 1.852-.767.899-1.317 2.081-1.65 3.549-.334 1.466-.501 3.365-.501 5.7v21.6H504.4v6.9h-19.601v14.399z"
      fill="url(#a)"
    />
  </g>
  <g transform="matrix(.27277 0 0 -.27277 -10.676 124.35)" clip-path="url(#f)">
    <g clip-path="url(#e)">
      <g clip-path="url(#d)">
        <path
          d="M103.115 371.165H78.934v6.477h24.181zM73.753 392.35l-16.085-15.167-4.75 4.75 13.791 12.846v.27l-13.791 12.846 4.75 4.75 16.085-15.167zM39.14 358.89h97v97h-97z"
          fill="url(#b)"
        />
      </g>
    </g>
  </g>
  <g transform="matrix(.27277 0 0 -.27277 -10.676 124.35)" clip-path="url(#c)">
    <path
      d="M178.4 426.89c-2.6-1-4.934-2.5-7-4.5-2.067-2-3.735-4.534-5-7.6-1.267-3.067-1.9-6.668-1.9-10.801 0-3.467.5-6.683 1.5-9.649 1-2.968 2.5-5.518 4.5-7.651s4.516-3.816 7.55-5.049c3.033-1.232 6.55-1.85 10.55-1.85 3.266 0 6.2.3 8.8.9 2.6.6 4.4 1.166 5.4 1.7l-1.1 7c-1.068-.534-2.634-1.035-4.7-1.5-2.067-.467-4.567-.7-7.5-.7-5.134 0-9.118 1.25-11.95 3.75-2.834 2.499-4.417 6.15-4.75 10.95H206v2.9c0 7.933-1.7 13.85-5.1 17.75-3.4 3.9-8.234 5.85-14.5 5.85-2.734 0-5.4-.5-8-1.5m-4.101-13.599A14.094 14.094 0 00177 417.39c1.132 1.2 2.482 2.166 4.049 2.9 1.566.733 3.317 1.1 5.251 1.1 3.4 0 6.133-1.15 8.2-3.45 2.065-2.3 3.1-5.417 3.1-9.35H173a17.103 17.103 0 001.299 4.701"
      fill="url(#a)"
    />
  </g>
  <g transform="matrix(.27277 0 0 -.27277 -10.676 124.35)" clip-path="url(#x)">
    <path
      d="M247.4 427.29l-11.5-16.2-12.5 16.2h-9.3l16.7-21.999a415.47 415.47 0 01-9.35-12.051c-3.168-4.235-5.85-8.35-8.05-12.35h8.499a82.445 82.445 0 002.701 4.3c1.065 1.6 2.215 3.25 3.45 4.95 1.233 1.7 2.516 3.383 3.85 5.05 1.333 1.666 2.6 3.265 3.8 4.8 1.2-1.467 2.416-3.034 3.65-4.699a129.655 129.655 0 003.55-5.051 133.299 133.299 0 003.15-4.95 64.188 64.188 0 002.45-4.4h9.201c-2.135 4.133-4.718 8.333-7.751 12.6a462.114 462.114 0 01-9.05 12.3l15.3 21.5z"
      fill="url(#a)"
    />
  </g>
  <g transform="matrix(.27277 0 0 -.27277 -10.676 124.35)" clip-path="url(#w)">
    <path
      d="M278.401 426.89c-2.601-1-4.935-2.5-7.001-4.5-2.067-2-3.734-4.534-5-7.6-1.267-3.067-1.9-6.668-1.9-10.801 0-3.467.5-6.683 1.5-9.649 1-2.968 2.5-5.518 4.5-7.651s4.516-3.816 7.55-5.049c3.033-1.232 6.55-1.85 10.549-1.85 3.266 0 6.2.3 8.801.9 2.6.6 4.4 1.166 5.4 1.7l-1.1 7c-1.068-.534-2.635-1.035-4.7-1.5-2.067-.467-4.568-.7-7.5-.7-5.135 0-9.118 1.25-11.95 3.75-2.834 2.499-4.417 6.15-4.75 10.95H306v2.9c0 7.933-1.7 13.85-5.099 17.75-3.401 3.9-8.235 5.85-14.5 5.85-2.735 0-5.401-.5-8-1.5m-4.101-13.599a14.091 14.091 0 002.7 4.099c1.132 1.2 2.482 2.166 4.05 2.9 1.565.733 3.315 1.1 5.25 1.1 3.4 0 6.132-1.15 8.2-3.45 2.065-2.3 3.099-5.417 3.099-9.35H273c.2 1.599.632 3.165 1.3 4.701"
      fill="url(#a)"
    />
  </g>
  <g transform="matrix(.27277 0 0 -.27277 -10.676 124.35)" clip-path="url(#v)">
    <path
      d="M331.05 426.94c-3.1-.967-5.818-2.45-8.15-4.45-2.334-2-4.168-4.534-5.5-7.6-1.334-3.067-2-6.7-2-10.901 0-3.999.615-7.516 1.85-10.55 1.232-3.033 2.965-5.549 5.2-7.549 2.232-2 4.9-3.518 8-4.55 3.1-1.033 6.515-1.55 10.25-1.55 2.8 0 5.399.184 7.8.55 2.4.367 4.765.983 7.1 1.849l-1.2 6.901c-2.334-.799-4.484-1.317-6.45-1.55a52.092 52.092 0 00-6.15-.35c-2.667 0-5.1.333-7.3 1-2.2.666-4.084 1.683-5.651 3.05-1.566 1.366-2.784 3.1-3.648 5.2-.868 2.101-1.301 4.616-1.301 7.549 0 3.067.465 5.684 1.4 7.851.932 2.165 2.182 3.933 3.75 5.3 1.565 1.365 3.415 2.365 5.549 3 2.133.632 4.401.95 6.802.95 1.864 0 3.714-.117 5.549-.35 1.833-.234 3.85-.75 6.05-1.551l1.901 7.1c-2.536.801-4.919 1.351-7.151 1.651-2.235.3-4.485.45-6.75.45-3.534 0-6.85-.484-9.95-1.45"
      fill="url(#a)"
    />
  </g>
  <g transform="matrix(.27277 0 0 -.27277 -10.676 124.35)" clip-path="url(#u)">
    <path
      d="M377.5 431.39c-3.8-7.534-5.7-15.434-5.7-23.7 0-8.334 1.883-16.25 5.65-23.75 3.766-7.501 9.482-14.083 17.15-19.751l4.5 6.001c-3.334 2.867-6.218 5.735-8.649 8.6-2.436 2.866-4.436 5.832-6.001 8.899a41.36 41.36 0 00-3.5 9.602c-.768 3.331-1.15 6.865-1.15 10.599 0 7.401 1.633 14.232 4.901 20.5 3.265 6.266 8 11.8 14.2 16.6H399l-4.4 6c-7.6-5.535-13.301-12.067-17.1-19.6"
      fill="url(#a)"
    />
  </g>
  <g transform="matrix(.27277 0 0 -.27277 -10.676 124.35)" clip-path="url(#t)">
    <path
      d="M445.099 427.29v-39.2c-.198-.068-.599-.15-1.198-.249a51.668 51.668 0 00-2.101-.301c-.8-.1-1.65-.185-2.55-.249a35.198 35.198 0 00-2.65-.101c-4.001 0-6.85 1.2-8.55 3.601-1.7 2.399-2.55 6.464-2.55 12.198v24.301h-8.201v-26.101c0-3.133.301-5.999.901-8.599.6-2.6 1.633-4.85 3.1-6.75 1.466-1.9 3.366-3.367 5.7-4.4 2.333-1.032 5.266-1.55 8.8-1.55 3.999 0 7.483.267 10.45.8 2.966.533 5.349 1.033 7.15 1.499v45.101z"
      fill="url(#a)"
    />
  </g>
  <g transform="matrix(.27277 0 0 -.27277 -10.676 124.35)" clip-path="url(#s)">
    <path
      d="M476.599 440.29v-13h-9.8v-6.9h9.8v-21.6c0-3.135.234-5.884.701-8.249.466-2.367 1.316-4.351 2.549-5.951 1.234-1.6 2.951-2.799 5.151-3.6 2.201-.8 5.033-1.2 8.5-1.2 3 0 5.516.334 7.55 1 2.033.665 3.515 1.2 4.45 1.6l-1.2 7a22.774 22.774 0 00-4.201-1.6c-1.467-.4-3.399-.6-5.799-.6-1.735 0-3.201.165-4.399.499-1.201.333-2.186.951-2.951 1.852-.767.899-1.317 2.081-1.65 3.549-.334 1.466-.501 3.365-.501 5.7v21.6H504.4v6.9h-19.601v14.399z"
      fill="url(#a)"
    />
  </g>
  <g transform="matrix(.27277 0 0 -.27277 -10.676 124.35)" clip-path="url(#r)">
    <path
      d="M521.8 444.99c3.333-2.867 6.216-5.734 8.65-8.6 2.433-2.867 4.451-5.835 6.05-8.9a40.094 40.094 0 003.549-9.6c.766-3.334 1.152-6.867 1.152-10.6 0-7.4-1.651-14.234-4.951-20.5-3.3-6.265-8.05-11.8-14.25-16.6h-.1l4.4-6.001c3.8 2.736 7.116 5.751 9.95 9.051 2.833 3.3 5.2 6.8 7.1 10.499a51.82 51.82 0 015.75 23.75c0 8.334-1.884 16.251-5.649 23.751-3.769 7.5-9.486 14.083-17.151 19.75z"
      fill="url(#a)"
    />
  </g>
</svg>
